<?xml version="1.0" encoding="utf-8" standalone="no"?>
<!DOCTYPE svg PUBLIC "-//W3C//DTD SVG 1.1//EN"
  "http://www.w3.org/Graphics/SVG/1.1/DTD/svg11.dtd">
<!-- Created with matplotlib (http://matplotlib.org/) -->
<svg height="370pt" version="1.1" viewBox="0 0 489 370" width="489pt" xmlns="http://www.w3.org/2000/svg" xmlns:xlink="http://www.w3.org/1999/xlink">
 <defs>
  <style type="text/css">
*{stroke-linecap:butt;stroke-linejoin:round;}
  </style>
 </defs>
 <g id="figure_1">
  <g id="patch_1">
   <path d="M 0 370.226937 
L 489.871953 370.226937 
L 489.871953 0 
L 0 0 
z
" style="fill:#ffffff;"/>
  </g>
  <g id="axes_1">
   <g id="patch_2">
    <path d="M 45.997813 331.90725 
L 354.413203 331.90725 
L 354.413203 23.50725 
L 45.997813 23.50725 
z
" style="fill:#e5e5e5;"/>
   </g>
   <g id="matplotlib.axis_1">
    <g id="xtick_1">
     <g id="line2d_1">
      <path clip-path="url(#p7b51884927)" d="M 75.520223 331.90725 
L 75.520223 23.50725 
" style="fill:none;stroke:#ffffff;stroke-linecap:round;"/>
     </g>
     <g id="line2d_2"/>
     <g id="text_1">
      <!-- −200 -->
      <defs>
       <path d="M 52.828125 31.203125 
L 5.5625 31.203125 
L 5.5625 39.40625 
L 52.828125 39.40625 
z
" id="ArialMT-2212"/>
       <path d="M 50.34375 8.453125 
L 50.34375 0 
L 3.03125 0 
Q 2.9375 3.171875 4.046875 6.109375 
Q 5.859375 10.9375 9.828125 15.625 
Q 13.8125 20.3125 21.34375 26.46875 
Q 33.015625 36.03125 37.109375 41.625 
Q 41.21875 47.21875 41.21875 52.203125 
Q 41.21875 57.421875 37.46875 61 
Q 33.734375 64.59375 27.734375 64.59375 
Q 21.390625 64.59375 17.578125 60.78125 
Q 13.765625 56.984375 13.71875 50.25 
L 4.6875 51.171875 
Q 5.609375 61.28125 11.65625 66.578125 
Q 17.71875 71.875 27.9375 71.875 
Q 38.234375 71.875 44.234375 66.15625 
Q 50.25 60.453125 50.25 52 
Q 50.25 47.703125 48.484375 43.546875 
Q 46.734375 39.40625 42.65625 34.8125 
Q 38.578125 30.21875 29.109375 22.21875 
Q 21.1875 15.578125 18.9375 13.203125 
Q 16.703125 10.84375 15.234375 8.453125 
z
" id="ArialMT-32"/>
       <path d="M 4.15625 35.296875 
Q 4.15625 48 6.765625 55.734375 
Q 9.375 63.484375 14.515625 67.671875 
Q 19.671875 71.875 27.484375 71.875 
Q 33.25 71.875 37.59375 69.546875 
Q 41.9375 67.234375 44.765625 62.859375 
Q 47.609375 58.5 49.21875 52.21875 
Q 50.828125 45.953125 50.828125 35.296875 
Q 50.828125 22.703125 48.234375 14.96875 
Q 45.65625 7.234375 40.5 3 
Q 35.359375 -1.21875 27.484375 -1.21875 
Q 17.140625 -1.21875 11.234375 6.203125 
Q 4.15625 15.140625 4.15625 35.296875 
M 13.1875 35.296875 
Q 13.1875 17.671875 17.3125 11.828125 
Q 21.4375 6 27.484375 6 
Q 33.546875 6 37.671875 11.859375 
Q 41.796875 17.71875 41.796875 35.296875 
Q 41.796875 52.984375 37.671875 58.78125 
Q 33.546875 64.59375 27.390625 64.59375 
Q 21.34375 64.59375 17.71875 59.46875 
Q 13.1875 52.9375 13.1875 35.296875 
" id="ArialMT-30"/>
      </defs>
      <g style="fill:#555555;" transform="translate(64.258504 346.065062)scale(0.1 -0.1)">
       <use xlink:href="#ArialMT-2212"/>
       <use x="58.398438" xlink:href="#ArialMT-32"/>
       <use x="114.013672" xlink:href="#ArialMT-30"/>
       <use x="169.628906" xlink:href="#ArialMT-30"/>
      </g>
     </g>
    </g>
    <g id="xtick_2">
     <g id="line2d_3">
      <path clip-path="url(#p7b51884927)" d="M 110.536616 331.90725 
L 110.536616 23.50725 
" style="fill:none;stroke:#ffffff;stroke-linecap:round;"/>
     </g>
     <g id="line2d_4"/>
     <g id="text_2">
      <!-- 0 -->
      <g style="fill:#555555;" transform="translate(107.756147 346.065062)scale(0.1 -0.1)">
       <use xlink:href="#ArialMT-30"/>
      </g>
     </g>
    </g>
    <g id="xtick_3">
     <g id="line2d_5">
      <path clip-path="url(#p7b51884927)" d="M 145.55301 331.90725 
L 145.55301 23.50725 
" style="fill:none;stroke:#ffffff;stroke-linecap:round;"/>
     </g>
     <g id="line2d_6"/>
     <g id="text_3">
      <!-- 200 -->
      <g style="fill:#555555;" transform="translate(137.211604 346.065062)scale(0.1 -0.1)">
       <use xlink:href="#ArialMT-32"/>
       <use x="55.615234" xlink:href="#ArialMT-30"/>
       <use x="111.230469" xlink:href="#ArialMT-30"/>
      </g>
     </g>
    </g>
    <g id="xtick_4">
     <g id="line2d_7">
      <path clip-path="url(#p7b51884927)" d="M 180.569403 331.90725 
L 180.569403 23.50725 
" style="fill:none;stroke:#ffffff;stroke-linecap:round;"/>
     </g>
     <g id="line2d_8"/>
     <g id="text_4">
      <!-- 400 -->
      <defs>
       <path d="M 32.328125 0 
L 32.328125 17.140625 
L 1.265625 17.140625 
L 1.265625 25.203125 
L 33.9375 71.578125 
L 41.109375 71.578125 
L 41.109375 25.203125 
L 50.78125 25.203125 
L 50.78125 17.140625 
L 41.109375 17.140625 
L 41.109375 0 
z
M 32.328125 25.203125 
L 32.328125 57.46875 
L 9.90625 25.203125 
z
" id="ArialMT-34"/>
      </defs>
      <g style="fill:#555555;" transform="translate(172.227997 346.065062)scale(0.1 -0.1)">
       <use xlink:href="#ArialMT-34"/>
       <use x="55.615234" xlink:href="#ArialMT-30"/>
       <use x="111.230469" xlink:href="#ArialMT-30"/>
      </g>
     </g>
    </g>
    <g id="xtick_5">
     <g id="line2d_9">
      <path clip-path="url(#p7b51884927)" d="M 215.585797 331.90725 
L 215.585797 23.50725 
" style="fill:none;stroke:#ffffff;stroke-linecap:round;"/>
     </g>
     <g id="line2d_10"/>
     <g id="text_5">
      <!-- 600 -->
      <defs>
       <path d="M 49.75 54.046875 
L 41.015625 53.375 
Q 39.84375 58.546875 37.703125 60.890625 
Q 34.125 64.65625 28.90625 64.65625 
Q 24.703125 64.65625 21.53125 62.3125 
Q 17.390625 59.28125 14.984375 53.46875 
Q 12.59375 47.65625 12.5 36.921875 
Q 15.671875 41.75 20.265625 44.09375 
Q 24.859375 46.4375 29.890625 46.4375 
Q 38.671875 46.4375 44.84375 39.96875 
Q 51.03125 33.5 51.03125 23.25 
Q 51.03125 16.5 48.125 10.71875 
Q 45.21875 4.9375 40.140625 1.859375 
Q 35.0625 -1.21875 28.609375 -1.21875 
Q 17.625 -1.21875 10.6875 6.859375 
Q 3.765625 14.9375 3.765625 33.5 
Q 3.765625 54.25 11.421875 63.671875 
Q 18.109375 71.875 29.4375 71.875 
Q 37.890625 71.875 43.28125 67.140625 
Q 48.6875 62.40625 49.75 54.046875 
M 13.875 23.1875 
Q 13.875 18.65625 15.796875 14.5 
Q 17.71875 10.359375 21.1875 8.171875 
Q 24.65625 6 28.46875 6 
Q 34.03125 6 38.03125 10.484375 
Q 42.046875 14.984375 42.046875 22.703125 
Q 42.046875 30.125 38.078125 34.390625 
Q 34.125 38.671875 28.125 38.671875 
Q 22.171875 38.671875 18.015625 34.390625 
Q 13.875 30.125 13.875 23.1875 
" id="ArialMT-36"/>
      </defs>
      <g style="fill:#555555;" transform="translate(207.244391 346.065062)scale(0.1 -0.1)">
       <use xlink:href="#ArialMT-36"/>
       <use x="55.615234" xlink:href="#ArialMT-30"/>
       <use x="111.230469" xlink:href="#ArialMT-30"/>
      </g>
     </g>
    </g>
    <g id="xtick_6">
     <g id="line2d_11">
      <path clip-path="url(#p7b51884927)" d="M 250.60219 331.90725 
L 250.60219 23.50725 
" style="fill:none;stroke:#ffffff;stroke-linecap:round;"/>
     </g>
     <g id="line2d_12"/>
     <g id="text_6">
      <!-- 800 -->
      <defs>
       <path d="M 17.671875 38.8125 
Q 12.203125 40.828125 9.5625 44.53125 
Q 6.9375 48.25 6.9375 53.421875 
Q 6.9375 61.234375 12.546875 66.546875 
Q 18.171875 71.875 27.484375 71.875 
Q 36.859375 71.875 42.578125 66.421875 
Q 48.296875 60.984375 48.296875 53.171875 
Q 48.296875 48.1875 45.671875 44.5 
Q 43.0625 40.828125 37.75 38.8125 
Q 44.34375 36.671875 47.78125 31.875 
Q 51.21875 27.09375 51.21875 20.453125 
Q 51.21875 11.28125 44.71875 5.03125 
Q 38.234375 -1.21875 27.640625 -1.21875 
Q 17.046875 -1.21875 10.546875 5.046875 
Q 4.046875 11.328125 4.046875 20.703125 
Q 4.046875 27.6875 7.59375 32.390625 
Q 11.140625 37.109375 17.671875 38.8125 
M 15.921875 53.71875 
Q 15.921875 48.640625 19.1875 45.40625 
Q 22.46875 42.1875 27.6875 42.1875 
Q 32.765625 42.1875 36.015625 45.375 
Q 39.265625 48.578125 39.265625 53.21875 
Q 39.265625 58.0625 35.90625 61.359375 
Q 32.5625 64.65625 27.59375 64.65625 
Q 22.5625 64.65625 19.234375 61.421875 
Q 15.921875 58.203125 15.921875 53.71875 
M 13.09375 20.65625 
Q 13.09375 16.890625 14.875 13.375 
Q 16.65625 9.859375 20.171875 7.921875 
Q 23.6875 6 27.734375 6 
Q 34.03125 6 38.125 10.046875 
Q 42.234375 14.109375 42.234375 20.359375 
Q 42.234375 26.703125 38.015625 30.859375 
Q 33.796875 35.015625 27.4375 35.015625 
Q 21.234375 35.015625 17.15625 30.90625 
Q 13.09375 26.8125 13.09375 20.65625 
" id="ArialMT-38"/>
      </defs>
      <g style="fill:#555555;" transform="translate(242.260784 346.065062)scale(0.1 -0.1)">
       <use xlink:href="#ArialMT-38"/>
       <use x="55.615234" xlink:href="#ArialMT-30"/>
       <use x="111.230469" xlink:href="#ArialMT-30"/>
      </g>
     </g>
    </g>
    <g id="xtick_7">
     <g id="line2d_13">
      <path clip-path="url(#p7b51884927)" d="M 285.618584 331.90725 
L 285.618584 23.50725 
" style="fill:none;stroke:#ffffff;stroke-linecap:round;"/>
     </g>
     <g id="line2d_14"/>
     <g id="text_7">
      <!-- 1000 -->
      <defs>
       <path d="M 37.25 0 
L 28.46875 0 
L 28.46875 56 
Q 25.296875 52.984375 20.140625 49.953125 
Q 14.984375 46.921875 10.890625 45.40625 
L 10.890625 53.90625 
Q 18.265625 57.375 23.78125 62.296875 
Q 29.296875 67.234375 31.59375 71.875 
L 37.25 71.875 
z
" id="ArialMT-31"/>
      </defs>
      <g style="fill:#555555;" transform="translate(274.496709 346.065062)scale(0.1 -0.1)">
       <use xlink:href="#ArialMT-31"/>
       <use x="55.615234" xlink:href="#ArialMT-30"/>
       <use x="111.230469" xlink:href="#ArialMT-30"/>
       <use x="166.845703" xlink:href="#ArialMT-30"/>
      </g>
     </g>
    </g>
    <g id="xtick_8">
     <g id="line2d_15">
      <path clip-path="url(#p7b51884927)" d="M 320.634977 331.90725 
L 320.634977 23.50725 
" style="fill:none;stroke:#ffffff;stroke-linecap:round;"/>
     </g>
     <g id="line2d_16"/>
     <g id="text_8">
      <!-- 1200 -->
      <g style="fill:#555555;" transform="translate(309.513102 346.065062)scale(0.1 -0.1)">
       <use xlink:href="#ArialMT-31"/>
       <use x="55.615234" xlink:href="#ArialMT-32"/>
       <use x="111.230469" xlink:href="#ArialMT-30"/>
       <use x="166.845703" xlink:href="#ArialMT-30"/>
      </g>
     </g>
    </g>
    <g id="text_9">
     <!-- Value -->
     <defs>
      <path d="M 28.171875 0 
L 0.4375 71.578125 
L 10.6875 71.578125 
L 29.296875 19.578125 
Q 31.546875 13.328125 33.0625 7.859375 
Q 34.71875 13.71875 36.921875 19.578125 
L 56.25 71.578125 
L 65.921875 71.578125 
L 37.890625 0 
z
" id="ArialMT-56"/>
      <path d="M 40.4375 6.390625 
Q 35.546875 2.25 31.03125 0.53125 
Q 26.515625 -1.171875 21.34375 -1.171875 
Q 12.796875 -1.171875 8.203125 3 
Q 3.609375 7.171875 3.609375 13.671875 
Q 3.609375 17.484375 5.34375 20.625 
Q 7.078125 23.78125 9.890625 25.6875 
Q 12.703125 27.59375 16.21875 28.5625 
Q 18.796875 29.25 24.03125 29.890625 
Q 34.671875 31.15625 39.703125 32.90625 
Q 39.75 34.71875 39.75 35.203125 
Q 39.75 40.578125 37.25 42.78125 
Q 33.890625 45.75 27.25 45.75 
Q 21.046875 45.75 18.09375 43.578125 
Q 15.140625 41.40625 13.71875 35.890625 
L 5.125 37.0625 
Q 6.296875 42.578125 8.984375 45.96875 
Q 11.671875 49.359375 16.75 51.1875 
Q 21.828125 53.03125 28.515625 53.03125 
Q 35.15625 53.03125 39.296875 51.46875 
Q 43.453125 49.90625 45.40625 47.53125 
Q 47.359375 45.171875 48.140625 41.546875 
Q 48.578125 39.3125 48.578125 33.453125 
L 48.578125 21.734375 
Q 48.578125 9.46875 49.140625 6.21875 
Q 49.703125 2.984375 51.375 0 
L 42.1875 0 
Q 40.828125 2.734375 40.4375 6.390625 
M 39.703125 26.03125 
Q 34.90625 24.078125 25.34375 22.703125 
Q 19.921875 21.921875 17.671875 20.9375 
Q 15.4375 19.96875 14.203125 18.09375 
Q 12.984375 16.21875 12.984375 13.921875 
Q 12.984375 10.40625 15.640625 8.0625 
Q 18.3125 5.71875 23.4375 5.71875 
Q 28.515625 5.71875 32.46875 7.9375 
Q 36.421875 10.15625 38.28125 14.015625 
Q 39.703125 17 39.703125 22.796875 
z
" id="ArialMT-61"/>
      <path d="M 6.390625 0 
L 6.390625 71.578125 
L 15.1875 71.578125 
L 15.1875 0 
z
" id="ArialMT-6c"/>
      <path d="M 40.578125 0 
L 40.578125 7.625 
Q 34.515625 -1.171875 24.125 -1.171875 
Q 19.53125 -1.171875 15.546875 0.578125 
Q 11.578125 2.34375 9.640625 5 
Q 7.71875 7.671875 6.9375 11.53125 
Q 6.390625 14.109375 6.390625 19.734375 
L 6.390625 51.859375 
L 15.1875 51.859375 
L 15.1875 23.09375 
Q 15.1875 16.21875 15.71875 13.8125 
Q 16.546875 10.359375 19.234375 8.375 
Q 21.921875 6.390625 25.875 6.390625 
Q 29.828125 6.390625 33.296875 8.421875 
Q 36.765625 10.453125 38.203125 13.9375 
Q 39.65625 17.4375 39.65625 24.078125 
L 39.65625 51.859375 
L 48.4375 51.859375 
L 48.4375 0 
z
" id="ArialMT-75"/>
      <path d="M 42.09375 16.703125 
L 51.171875 15.578125 
Q 49.03125 7.625 43.21875 3.21875 
Q 37.40625 -1.171875 28.375 -1.171875 
Q 17 -1.171875 10.328125 5.828125 
Q 3.65625 12.84375 3.65625 25.484375 
Q 3.65625 38.578125 10.390625 45.796875 
Q 17.140625 53.03125 27.875 53.03125 
Q 38.28125 53.03125 44.875 45.953125 
Q 51.46875 38.875 51.46875 26.03125 
Q 51.46875 25.25 51.421875 23.6875 
L 12.75 23.6875 
Q 13.234375 15.140625 17.578125 10.59375 
Q 21.921875 6.0625 28.421875 6.0625 
Q 33.25 6.0625 36.671875 8.59375 
Q 40.09375 11.140625 42.09375 16.703125 
M 13.234375 30.90625 
L 42.1875 30.90625 
Q 41.609375 37.453125 38.875 40.71875 
Q 34.671875 45.796875 27.984375 45.796875 
Q 21.921875 45.796875 17.796875 41.75 
Q 13.671875 37.703125 13.234375 30.90625 
" id="ArialMT-65"/>
     </defs>
     <g style="fill:#555555;" transform="translate(184.86707 360.641937)scale(0.12 -0.12)">
      <use xlink:href="#ArialMT-56"/>
      <use x="66.589844" xlink:href="#ArialMT-61"/>
      <use x="122.205078" xlink:href="#ArialMT-6c"/>
      <use x="144.421875" xlink:href="#ArialMT-75"/>
      <use x="200.037109" xlink:href="#ArialMT-65"/>
     </g>
    </g>
   </g>
   <g id="matplotlib.axis_2">
    <g id="ytick_1">
     <g id="line2d_17">
      <path clip-path="url(#p7b51884927)" d="M 45.997813 331.90725 
L 354.413203 331.90725 
" style="fill:none;stroke:#ffffff;stroke-linecap:round;"/>
     </g>
     <g id="line2d_18"/>
     <g id="text_10">
      <!-- 0 -->
      <g style="fill:#555555;" transform="translate(33.436875 335.486156)scale(0.1 -0.1)">
       <use xlink:href="#ArialMT-30"/>
      </g>
     </g>
    </g>
    <g id="ytick_2">
     <g id="line2d_19">
      <path clip-path="url(#p7b51884927)" d="M 45.997813 283.836172 
L 354.413203 283.836172 
" style="fill:none;stroke:#ffffff;stroke-linecap:round;"/>
     </g>
     <g id="line2d_20"/>
     <g id="text_11">
      <!-- 100 -->
      <g style="fill:#555555;" transform="translate(22.315 287.415078)scale(0.1 -0.1)">
       <use xlink:href="#ArialMT-31"/>
       <use x="55.615234" xlink:href="#ArialMT-30"/>
       <use x="111.230469" xlink:href="#ArialMT-30"/>
      </g>
     </g>
    </g>
    <g id="ytick_3">
     <g id="line2d_21">
      <path clip-path="url(#p7b51884927)" d="M 45.997813 235.765094 
L 354.413203 235.765094 
" style="fill:none;stroke:#ffffff;stroke-linecap:round;"/>
     </g>
     <g id="line2d_22"/>
     <g id="text_12">
      <!-- 200 -->
      <g style="fill:#555555;" transform="translate(22.315 239.344001)scale(0.1 -0.1)">
       <use xlink:href="#ArialMT-32"/>
       <use x="55.615234" xlink:href="#ArialMT-30"/>
       <use x="111.230469" xlink:href="#ArialMT-30"/>
      </g>
     </g>
    </g>
    <g id="ytick_4">
     <g id="line2d_23">
      <path clip-path="url(#p7b51884927)" d="M 45.997813 187.694016 
L 354.413203 187.694016 
" style="fill:none;stroke:#ffffff;stroke-linecap:round;"/>
     </g>
     <g id="line2d_24"/>
     <g id="text_13">
      <!-- 300 -->
      <defs>
       <path d="M 4.203125 18.890625 
L 12.984375 20.0625 
Q 14.5 12.59375 18.140625 9.296875 
Q 21.78125 6 27 6 
Q 33.203125 6 37.46875 10.296875 
Q 41.75 14.59375 41.75 20.953125 
Q 41.75 27 37.796875 30.921875 
Q 33.84375 34.859375 27.734375 34.859375 
Q 25.25 34.859375 21.53125 33.890625 
L 22.515625 41.609375 
Q 23.390625 41.5 23.921875 41.5 
Q 29.546875 41.5 34.03125 44.421875 
Q 38.53125 47.359375 38.53125 53.46875 
Q 38.53125 58.296875 35.25 61.46875 
Q 31.984375 64.65625 26.8125 64.65625 
Q 21.6875 64.65625 18.265625 61.421875 
Q 14.84375 58.203125 13.875 51.765625 
L 5.078125 53.328125 
Q 6.6875 62.15625 12.390625 67.015625 
Q 18.109375 71.875 26.609375 71.875 
Q 32.46875 71.875 37.390625 69.359375 
Q 42.328125 66.84375 44.9375 62.5 
Q 47.5625 58.15625 47.5625 53.265625 
Q 47.5625 48.640625 45.0625 44.828125 
Q 42.578125 41.015625 37.703125 38.765625 
Q 44.046875 37.3125 47.5625 32.6875 
Q 51.078125 28.078125 51.078125 21.140625 
Q 51.078125 11.765625 44.234375 5.25 
Q 37.40625 -1.265625 26.953125 -1.265625 
Q 17.53125 -1.265625 11.296875 4.34375 
Q 5.078125 9.96875 4.203125 18.890625 
" id="ArialMT-33"/>
      </defs>
      <g style="fill:#555555;" transform="translate(22.315 191.272923)scale(0.1 -0.1)">
       <use xlink:href="#ArialMT-33"/>
       <use x="55.615234" xlink:href="#ArialMT-30"/>
       <use x="111.230469" xlink:href="#ArialMT-30"/>
      </g>
     </g>
    </g>
    <g id="ytick_5">
     <g id="line2d_25">
      <path clip-path="url(#p7b51884927)" d="M 45.997813 139.622939 
L 354.413203 139.622939 
" style="fill:none;stroke:#ffffff;stroke-linecap:round;"/>
     </g>
     <g id="line2d_26"/>
     <g id="text_14">
      <!-- 400 -->
      <g style="fill:#555555;" transform="translate(22.315 143.201845)scale(0.1 -0.1)">
       <use xlink:href="#ArialMT-34"/>
       <use x="55.615234" xlink:href="#ArialMT-30"/>
       <use x="111.230469" xlink:href="#ArialMT-30"/>
      </g>
     </g>
    </g>
    <g id="ytick_6">
     <g id="line2d_27">
      <path clip-path="url(#p7b51884927)" d="M 45.997813 91.551861 
L 354.413203 91.551861 
" style="fill:none;stroke:#ffffff;stroke-linecap:round;"/>
     </g>
     <g id="line2d_28"/>
     <g id="text_15">
      <!-- 500 -->
      <defs>
       <path d="M 4.15625 18.75 
L 13.375 19.53125 
Q 14.40625 12.796875 18.140625 9.390625 
Q 21.875 6 27.15625 6 
Q 33.5 6 37.890625 10.78125 
Q 42.28125 15.578125 42.28125 23.484375 
Q 42.28125 31 38.0625 35.34375 
Q 33.84375 39.703125 27 39.703125 
Q 22.75 39.703125 19.328125 37.765625 
Q 15.921875 35.84375 13.96875 32.765625 
L 5.71875 33.84375 
L 12.640625 70.609375 
L 48.25 70.609375 
L 48.25 62.203125 
L 19.671875 62.203125 
L 15.828125 42.96875 
Q 22.265625 47.46875 29.34375 47.46875 
Q 38.71875 47.46875 45.15625 40.96875 
Q 51.609375 34.46875 51.609375 24.265625 
Q 51.609375 14.546875 45.953125 7.46875 
Q 39.0625 -1.21875 27.15625 -1.21875 
Q 17.390625 -1.21875 11.203125 4.25 
Q 5.03125 9.71875 4.15625 18.75 
" id="ArialMT-35"/>
      </defs>
      <g style="fill:#555555;" transform="translate(22.315 95.130767)scale(0.1 -0.1)">
       <use xlink:href="#ArialMT-35"/>
       <use x="55.615234" xlink:href="#ArialMT-30"/>
       <use x="111.230469" xlink:href="#ArialMT-30"/>
      </g>
     </g>
    </g>
    <g id="ytick_7">
     <g id="line2d_29">
      <path clip-path="url(#p7b51884927)" d="M 45.997813 43.480783 
L 354.413203 43.480783 
" style="fill:none;stroke:#ffffff;stroke-linecap:round;"/>
     </g>
     <g id="line2d_30"/>
     <g id="text_16">
      <!-- 600 -->
      <g style="fill:#555555;" transform="translate(22.315 47.059689)scale(0.1 -0.1)">
       <use xlink:href="#ArialMT-36"/>
       <use x="55.615234" xlink:href="#ArialMT-30"/>
       <use x="111.230469" xlink:href="#ArialMT-30"/>
      </g>
     </g>
    </g>
    <g id="text_17">
     <!-- Frequency -->
     <defs>
      <path d="M 8.203125 0 
L 8.203125 71.578125 
L 56.5 71.578125 
L 56.5 63.140625 
L 17.671875 63.140625 
L 17.671875 40.96875 
L 51.265625 40.96875 
L 51.265625 32.515625 
L 17.671875 32.515625 
L 17.671875 0 
z
" id="ArialMT-46"/>
      <path d="M 6.5 0 
L 6.5 51.859375 
L 14.40625 51.859375 
L 14.40625 44 
Q 17.4375 49.515625 20 51.265625 
Q 22.5625 53.03125 25.640625 53.03125 
Q 30.078125 53.03125 34.671875 50.203125 
L 31.640625 42.046875 
Q 28.421875 43.953125 25.203125 43.953125 
Q 22.3125 43.953125 20.015625 42.21875 
Q 17.71875 40.484375 16.75 37.40625 
Q 15.28125 32.71875 15.28125 27.15625 
L 15.28125 0 
z
" id="ArialMT-72"/>
      <path d="M 39.65625 -19.875 
L 39.65625 5.515625 
Q 37.59375 2.640625 33.90625 0.734375 
Q 30.21875 -1.171875 26.078125 -1.171875 
Q 16.84375 -1.171875 10.171875 6.203125 
Q 3.515625 13.578125 3.515625 26.421875 
Q 3.515625 34.234375 6.21875 40.421875 
Q 8.9375 46.625 14.078125 49.828125 
Q 19.234375 53.03125 25.390625 53.03125 
Q 35.015625 53.03125 40.53125 44.921875 
L 40.53125 51.859375 
L 48.4375 51.859375 
L 48.4375 -19.875 
z
M 12.546875 26.078125 
Q 12.546875 16.0625 16.75 11.0625 
Q 20.953125 6.0625 26.8125 6.0625 
Q 32.421875 6.0625 36.46875 10.8125 
Q 40.53125 15.578125 40.53125 25.296875 
Q 40.53125 35.640625 36.25 40.859375 
Q 31.984375 46.09375 26.21875 46.09375 
Q 20.515625 46.09375 16.53125 41.234375 
Q 12.546875 36.375 12.546875 26.078125 
" id="ArialMT-71"/>
      <path d="M 6.59375 0 
L 6.59375 51.859375 
L 14.5 51.859375 
L 14.5 44.484375 
Q 20.21875 53.03125 31 53.03125 
Q 35.6875 53.03125 39.625 51.34375 
Q 43.5625 49.65625 45.515625 46.921875 
Q 47.46875 44.1875 48.25 40.4375 
Q 48.734375 37.984375 48.734375 31.890625 
L 48.734375 0 
L 39.9375 0 
L 39.9375 31.546875 
Q 39.9375 36.921875 38.90625 39.578125 
Q 37.890625 42.234375 35.28125 43.8125 
Q 32.671875 45.40625 29.15625 45.40625 
Q 23.53125 45.40625 19.453125 41.84375 
Q 15.375 38.28125 15.375 28.328125 
L 15.375 0 
z
" id="ArialMT-6e"/>
      <path d="M 40.4375 19 
L 49.078125 17.875 
Q 47.65625 8.9375 41.8125 3.875 
Q 35.984375 -1.171875 27.484375 -1.171875 
Q 16.84375 -1.171875 10.375 5.78125 
Q 3.90625 12.75 3.90625 25.734375 
Q 3.90625 34.125 6.6875 40.421875 
Q 9.46875 46.734375 15.15625 49.875 
Q 20.84375 53.03125 27.546875 53.03125 
Q 35.984375 53.03125 41.359375 48.75 
Q 46.734375 44.484375 48.25 36.625 
L 39.703125 35.296875 
Q 38.484375 40.53125 35.375 43.15625 
Q 32.28125 45.796875 27.875 45.796875 
Q 21.234375 45.796875 17.078125 41.03125 
Q 12.9375 36.28125 12.9375 25.984375 
Q 12.9375 15.53125 16.9375 10.796875 
Q 20.953125 6.0625 27.390625 6.0625 
Q 32.5625 6.0625 36.03125 9.234375 
Q 39.5 12.40625 40.4375 19 
" id="ArialMT-63"/>
      <path d="M 6.203125 -19.96875 
L 5.21875 -11.71875 
Q 8.109375 -12.5 10.25 -12.5 
Q 13.1875 -12.5 14.9375 -11.515625 
Q 16.703125 -10.546875 17.828125 -8.796875 
Q 18.65625 -7.46875 20.515625 -2.25 
Q 20.75 -1.515625 21.296875 -0.09375 
L 1.609375 51.859375 
L 11.078125 51.859375 
L 21.875 21.828125 
Q 23.96875 16.109375 25.640625 9.8125 
Q 27.15625 15.875 29.25 21.625 
L 40.328125 51.859375 
L 49.125 51.859375 
L 29.390625 -0.875 
Q 26.21875 -9.421875 24.46875 -12.640625 
Q 22.125 -17 19.09375 -19.015625 
Q 16.0625 -21.046875 11.859375 -21.046875 
Q 9.328125 -21.046875 6.203125 -19.96875 
" id="ArialMT-79"/>
     </defs>
     <g style="fill:#555555;" transform="translate(15.789375 206.052562)rotate(-90)scale(0.12 -0.12)">
      <use xlink:href="#ArialMT-46"/>
      <use x="61.083984" xlink:href="#ArialMT-72"/>
      <use x="94.384766" xlink:href="#ArialMT-65"/>
      <use x="150" xlink:href="#ArialMT-71"/>
      <use x="205.615234" xlink:href="#ArialMT-75"/>
      <use x="261.230469" xlink:href="#ArialMT-65"/>
      <use x="316.845703" xlink:href="#ArialMT-6e"/>
      <use x="372.460938" xlink:href="#ArialMT-63"/>
      <use x="422.460938" xlink:href="#ArialMT-79"/>
     </g>
    </g>
   </g>
   <g id="patch_3">
    <path clip-path="url(#p7b51884927)" d="M 112.875098 331.90725 
L 124.849794 331.90725 
L 124.849794 318.447348 
L 112.875098 318.447348 
z
" style="fill:#e24a33;opacity:0.4;"/>
   </g>
   <g id="patch_4">
    <path clip-path="url(#p7b51884927)" d="M 124.849794 331.90725 
L 136.82449 331.90725 
L 136.82449 322.293034 
L 124.849794 322.293034 
z
" style="fill:#e24a33;opacity:0.4;"/>
   </g>
   <g id="patch_5">
    <path clip-path="url(#p7b51884927)" d="M 136.82449 331.90725 
L 148.799186 331.90725 
L 148.799186 320.850902 
L 136.82449 320.850902 
z
" style="fill:#e24a33;opacity:0.4;"/>
   </g>
   <g id="patch_6">
    <path clip-path="url(#p7b51884927)" d="M 148.799186 331.90725 
L 160.773882 331.90725 
L 160.773882 327.580853 
L 148.799186 327.580853 
z
" style="fill:#e24a33;opacity:0.4;"/>
   </g>
   <g id="patch_7">
    <path clip-path="url(#p7b51884927)" d="M 160.773882 331.90725 
L 172.748578 331.90725 
L 172.748578 329.984407 
L 160.773882 329.984407 
z
" style="fill:#e24a33;opacity:0.4;"/>
   </g>
   <g id="patch_8">
    <path clip-path="url(#p7b51884927)" d="M 172.748578 331.90725 
L 184.723274 331.90725 
L 184.723274 329.984407 
L 172.748578 329.984407 
z
" style="fill:#e24a33;opacity:0.4;"/>
   </g>
   <g id="patch_9">
    <path clip-path="url(#p7b51884927)" d="M 184.723274 331.90725 
L 196.69797 331.90725 
L 196.69797 329.984407 
L 184.723274 329.984407 
z
" style="fill:#e24a33;opacity:0.4;"/>
   </g>
   <g id="patch_10">
    <path clip-path="url(#p7b51884927)" d="M 196.69797 331.90725 
L 208.672666 331.90725 
L 208.672666 330.945828 
L 196.69797 330.945828 
z
" style="fill:#e24a33;opacity:0.4;"/>
   </g>
   <g id="patch_11">
    <path clip-path="url(#p7b51884927)" d="M 208.672666 331.90725 
L 220.647362 331.90725 
L 220.647362 331.426539 
L 208.672666 331.426539 
z
" style="fill:#e24a33;opacity:0.4;"/>
   </g>
   <g id="patch_12">
    <path clip-path="url(#p7b51884927)" d="M 220.647362 331.90725 
L 232.622058 331.90725 
L 232.622058 331.90725 
L 220.647362 331.90725 
z
" style="fill:#e24a33;opacity:0.4;"/>
   </g>
   <g id="patch_13">
    <path clip-path="url(#p7b51884927)" d="M 232.622058 331.90725 
L 244.596754 331.90725 
L 244.596754 330.465118 
L 232.622058 330.465118 
z
" style="fill:#e24a33;opacity:0.4;"/>
   </g>
   <g id="patch_14">
    <path clip-path="url(#p7b51884927)" d="M 244.596754 331.90725 
L 256.57145 331.90725 
L 256.57145 331.90725 
L 244.596754 331.90725 
z
" style="fill:#e24a33;opacity:0.4;"/>
   </g>
   <g id="patch_15">
    <path clip-path="url(#p7b51884927)" d="M 256.57145 331.90725 
L 268.546146 331.90725 
L 268.546146 331.426539 
L 256.57145 331.426539 
z
" style="fill:#e24a33;opacity:0.4;"/>
   </g>
   <g id="patch_16">
    <path clip-path="url(#p7b51884927)" d="M 268.546146 331.90725 
L 280.520842 331.90725 
L 280.520842 331.90725 
L 268.546146 331.90725 
z
" style="fill:#e24a33;opacity:0.4;"/>
   </g>
   <g id="patch_17">
    <path clip-path="url(#p7b51884927)" d="M 280.520842 331.90725 
L 292.495538 331.90725 
L 292.495538 331.90725 
L 280.520842 331.90725 
z
" style="fill:#e24a33;opacity:0.4;"/>
   </g>
   <g id="patch_18">
    <path clip-path="url(#p7b51884927)" d="M 292.495538 331.90725 
L 304.470234 331.90725 
L 304.470234 331.90725 
L 292.495538 331.90725 
z
" style="fill:#e24a33;opacity:0.4;"/>
   </g>
   <g id="patch_19">
    <path clip-path="url(#p7b51884927)" d="M 304.470234 331.90725 
L 316.44493 331.90725 
L 316.44493 331.90725 
L 304.470234 331.90725 
z
" style="fill:#e24a33;opacity:0.4;"/>
   </g>
   <g id="patch_20">
    <path clip-path="url(#p7b51884927)" d="M 316.44493 331.90725 
L 328.419626 331.90725 
L 328.419626 331.90725 
L 316.44493 331.90725 
z
" style="fill:#e24a33;opacity:0.4;"/>
   </g>
   <g id="patch_21">
    <path clip-path="url(#p7b51884927)" d="M 328.419626 331.90725 
L 340.394322 331.90725 
L 340.394322 331.426539 
L 328.419626 331.426539 
z
" style="fill:#e24a33;opacity:0.4;"/>
   </g>
   <g id="patch_22">
    <path clip-path="url(#p7b51884927)" d="M 127.176315 331.90725 
L 127.507458 331.90725 
L 127.507458 330.945828 
L 127.176315 330.945828 
z
" style="fill:#348abd;opacity:0.4;"/>
   </g>
   <g id="patch_23">
    <path clip-path="url(#p7b51884927)" d="M 127.507458 331.90725 
L 127.8386 331.90725 
L 127.8386 329.984407 
L 127.507458 329.984407 
z
" style="fill:#348abd;opacity:0.4;"/>
   </g>
   <g id="patch_24">
    <path clip-path="url(#p7b51884927)" d="M 127.8386 331.90725 
L 128.169743 331.90725 
L 128.169743 331.90725 
L 127.8386 331.90725 
z
" style="fill:#348abd;opacity:0.4;"/>
   </g>
   <g id="patch_25">
    <path clip-path="url(#p7b51884927)" d="M 128.169743 331.90725 
L 128.500885 331.90725 
L 128.500885 327.580853 
L 128.169743 327.580853 
z
" style="fill:#348abd;opacity:0.4;"/>
   </g>
   <g id="patch_26">
    <path clip-path="url(#p7b51884927)" d="M 128.500885 331.90725 
L 128.832028 331.90725 
L 128.832028 325.177299 
L 128.500885 325.177299 
z
" style="fill:#348abd;opacity:0.4;"/>
   </g>
   <g id="patch_27">
    <path clip-path="url(#p7b51884927)" d="M 128.832028 331.90725 
L 129.16317 331.90725 
L 129.16317 320.850902 
L 128.832028 320.850902 
z
" style="fill:#348abd;opacity:0.4;"/>
   </g>
   <g id="patch_28">
    <path clip-path="url(#p7b51884927)" d="M 129.16317 331.90725 
L 129.494313 331.90725 
L 129.494313 315.082373 
L 129.16317 315.082373 
z
" style="fill:#348abd;opacity:0.4;"/>
   </g>
   <g id="patch_29">
    <path clip-path="url(#p7b51884927)" d="M 129.494313 331.90725 
L 129.825455 331.90725 
L 129.825455 302.103182 
L 129.494313 302.103182 
z
" style="fill:#348abd;opacity:0.4;"/>
   </g>
   <g id="patch_30">
    <path clip-path="url(#p7b51884927)" d="M 129.825455 331.90725 
L 130.156598 331.90725 
L 130.156598 295.373231 
L 129.825455 295.373231 
z
" style="fill:#348abd;opacity:0.4;"/>
   </g>
   <g id="patch_31">
    <path clip-path="url(#p7b51884927)" d="M 130.156598 331.90725 
L 130.48774 331.90725 
L 130.48774 272.299113 
L 130.156598 272.299113 
z
" style="fill:#348abd;opacity:0.4;"/>
   </g>
   <g id="patch_32">
    <path clip-path="url(#p7b51884927)" d="M 130.48774 331.90725 
L 130.818883 331.90725 
L 130.818883 262.204187 
L 130.48774 262.204187 
z
" style="fill:#348abd;opacity:0.4;"/>
   </g>
   <g id="patch_33">
    <path clip-path="url(#p7b51884927)" d="M 130.818883 331.90725 
L 131.150025 331.90725 
L 131.150025 243.937178 
L 130.818883 243.937178 
z
" style="fill:#348abd;opacity:0.4;"/>
   </g>
   <g id="patch_34">
    <path clip-path="url(#p7b51884927)" d="M 131.150025 331.90725 
L 131.481168 331.90725 
L 131.481168 218.940217 
L 131.150025 218.940217 
z
" style="fill:#348abd;opacity:0.4;"/>
   </g>
   <g id="patch_35">
    <path clip-path="url(#p7b51884927)" d="M 131.481168 331.90725 
L 131.81231 331.90725 
L 131.81231 192.020413 
L 131.481168 192.020413 
z
" style="fill:#348abd;opacity:0.4;"/>
   </g>
   <g id="patch_36">
    <path clip-path="url(#p7b51884927)" d="M 131.81231 331.90725 
L 132.143453 331.90725 
L 132.143453 147.795022 
L 131.81231 147.795022 
z
" style="fill:#348abd;opacity:0.4;"/>
   </g>
   <g id="patch_37">
    <path clip-path="url(#p7b51884927)" d="M 132.143453 331.90725 
L 132.474595 331.90725 
L 132.474595 136.257963 
L 132.143453 136.257963 
z
" style="fill:#348abd;opacity:0.4;"/>
   </g>
   <g id="patch_38">
    <path clip-path="url(#p7b51884927)" d="M 132.474595 331.90725 
L 132.805738 331.90725 
L 132.805738 108.376738 
L 132.474595 108.376738 
z
" style="fill:#348abd;opacity:0.4;"/>
   </g>
   <g id="patch_39">
    <path clip-path="url(#p7b51884927)" d="M 132.805738 331.90725 
L 133.13688 331.90725 
L 133.13688 76.169116 
L 132.805738 76.169116 
z
" style="fill:#348abd;opacity:0.4;"/>
   </g>
   <g id="patch_40">
    <path clip-path="url(#p7b51884927)" d="M 133.13688 331.90725 
L 133.468023 331.90725 
L 133.468023 66.5549 
L 133.13688 66.5549 
z
" style="fill:#348abd;opacity:0.4;"/>
   </g>
   <g id="patch_41">
    <path clip-path="url(#p7b51884927)" d="M 133.468023 331.90725 
L 133.799165 331.90725 
L 133.799165 46.365048 
L 133.468023 46.365048 
z
" style="fill:#348abd;opacity:0.4;"/>
   </g>
   <g id="patch_42">
    <path clip-path="url(#p7b51884927)" d="M 133.799165 331.90725 
L 134.130308 331.90725 
L 134.130308 41.077229 
L 133.799165 41.077229 
z
" style="fill:#348abd;opacity:0.4;"/>
   </g>
   <g id="patch_43">
    <path clip-path="url(#p7b51884927)" d="M 134.130308 331.90725 
L 134.46145 331.90725 
L 134.46145 73.765562 
L 134.130308 73.765562 
z
" style="fill:#348abd;opacity:0.4;"/>
   </g>
   <g id="patch_44">
    <path clip-path="url(#p7b51884927)" d="M 134.46145 331.90725 
L 134.792593 331.90725 
L 134.792593 47.80718 
L 134.46145 47.80718 
z
" style="fill:#348abd;opacity:0.4;"/>
   </g>
   <g id="patch_45">
    <path clip-path="url(#p7b51884927)" d="M 134.792593 331.90725 
L 135.123735 331.90725 
L 135.123735 75.207694 
L 134.792593 75.207694 
z
" style="fill:#348abd;opacity:0.4;"/>
   </g>
   <g id="patch_46">
    <path clip-path="url(#p7b51884927)" d="M 135.123735 331.90725 
L 135.454878 331.90725 
L 135.454878 85.302621 
L 135.123735 85.302621 
z
" style="fill:#348abd;opacity:0.4;"/>
   </g>
   <g id="patch_47">
    <path clip-path="url(#p7b51884927)" d="M 135.454878 331.90725 
L 135.78602 331.90725 
L 135.78602 106.453895 
L 135.454878 106.453895 
z
" style="fill:#348abd;opacity:0.4;"/>
   </g>
   <g id="patch_48">
    <path clip-path="url(#p7b51884927)" d="M 135.78602 331.90725 
L 136.117163 331.90725 
L 136.117163 145.391468 
L 135.78602 145.391468 
z
" style="fill:#348abd;opacity:0.4;"/>
   </g>
   <g id="patch_49">
    <path clip-path="url(#p7b51884927)" d="M 136.117163 331.90725 
L 136.448305 331.90725 
L 136.448305 137.219385 
L 136.117163 137.219385 
z
" style="fill:#348abd;opacity:0.4;"/>
   </g>
   <g id="patch_50">
    <path clip-path="url(#p7b51884927)" d="M 136.448305 331.90725 
L 136.779448 331.90725 
L 136.779448 189.61686 
L 136.448305 189.61686 
z
" style="fill:#348abd;opacity:0.4;"/>
   </g>
   <g id="patch_51">
    <path clip-path="url(#p7b51884927)" d="M 136.779448 331.90725 
L 137.11059 331.90725 
L 137.11059 190.578281 
L 136.779448 190.578281 
z
" style="fill:#348abd;opacity:0.4;"/>
   </g>
   <g id="patch_52">
    <path clip-path="url(#p7b51884927)" d="M 137.11059 331.90725 
L 137.441732 331.90725 
L 137.441732 217.498085 
L 137.11059 217.498085 
z
" style="fill:#348abd;opacity:0.4;"/>
   </g>
   <g id="patch_53">
    <path clip-path="url(#p7b51884927)" d="M 137.441732 331.90725 
L 137.772875 331.90725 
L 137.772875 231.919408 
L 137.441732 231.919408 
z
" style="fill:#348abd;opacity:0.4;"/>
   </g>
   <g id="patch_54">
    <path clip-path="url(#p7b51884927)" d="M 137.772875 331.90725 
L 138.104017 331.90725 
L 138.104017 259.319922 
L 137.772875 259.319922 
z
" style="fill:#348abd;opacity:0.4;"/>
   </g>
   <g id="patch_55">
    <path clip-path="url(#p7b51884927)" d="M 138.104017 331.90725 
L 138.43516 331.90725 
L 138.43516 254.032104 
L 138.104017 254.032104 
z
" style="fill:#348abd;opacity:0.4;"/>
   </g>
   <g id="patch_56">
    <path clip-path="url(#p7b51884927)" d="M 138.43516 331.90725 
L 138.766302 331.90725 
L 138.766302 278.067643 
L 138.43516 278.067643 
z
" style="fill:#348abd;opacity:0.4;"/>
   </g>
   <g id="patch_57">
    <path clip-path="url(#p7b51884927)" d="M 138.766302 331.90725 
L 139.097445 331.90725 
L 139.097445 288.162569 
L 138.766302 288.162569 
z
" style="fill:#348abd;opacity:0.4;"/>
   </g>
   <g id="patch_58">
    <path clip-path="url(#p7b51884927)" d="M 139.097445 331.90725 
L 139.428587 331.90725 
L 139.428587 300.180339 
L 139.097445 300.180339 
z
" style="fill:#348abd;opacity:0.4;"/>
   </g>
   <g id="patch_59">
    <path clip-path="url(#p7b51884927)" d="M 139.428587 331.90725 
L 139.75973 331.90725 
L 139.75973 307.871711 
L 139.428587 307.871711 
z
" style="fill:#348abd;opacity:0.4;"/>
   </g>
   <g id="patch_60">
    <path clip-path="url(#p7b51884927)" d="M 139.75973 331.90725 
L 140.090872 331.90725 
L 140.090872 310.755976 
L 139.75973 310.755976 
z
" style="fill:#348abd;opacity:0.4;"/>
   </g>
   <g id="patch_61">
    <path clip-path="url(#p7b51884927)" d="M 140.090872 331.90725 
L 140.422015 331.90725 
L 140.422015 315.563084 
L 140.090872 315.563084 
z
" style="fill:#348abd;opacity:0.4;"/>
   </g>
   <g id="patch_62">
    <path clip-path="url(#p7b51884927)" d="M 140.422015 331.90725 
L 140.753157 331.90725 
L 140.753157 324.215878 
L 140.422015 324.215878 
z
" style="fill:#348abd;opacity:0.4;"/>
   </g>
   <g id="patch_63">
    <path clip-path="url(#p7b51884927)" d="M 140.753157 331.90725 
L 141.0843 331.90725 
L 141.0843 326.619431 
L 140.753157 326.619431 
z
" style="fill:#348abd;opacity:0.4;"/>
   </g>
   <g id="patch_64">
    <path clip-path="url(#p7b51884927)" d="M 141.0843 331.90725 
L 141.415442 331.90725 
L 141.415442 322.773745 
L 141.0843 322.773745 
z
" style="fill:#348abd;opacity:0.4;"/>
   </g>
   <g id="patch_65">
    <path clip-path="url(#p7b51884927)" d="M 141.415442 331.90725 
L 141.746585 331.90725 
L 141.746585 327.100142 
L 141.415442 327.100142 
z
" style="fill:#348abd;opacity:0.4;"/>
   </g>
   <g id="patch_66">
    <path clip-path="url(#p7b51884927)" d="M 141.746585 331.90725 
L 142.077727 331.90725 
L 142.077727 330.465118 
L 141.746585 330.465118 
z
" style="fill:#348abd;opacity:0.4;"/>
   </g>
   <g id="patch_67">
    <path clip-path="url(#p7b51884927)" d="M 142.077727 331.90725 
L 142.40887 331.90725 
L 142.40887 329.984407 
L 142.077727 329.984407 
z
" style="fill:#348abd;opacity:0.4;"/>
   </g>
   <g id="patch_68">
    <path clip-path="url(#p7b51884927)" d="M 142.40887 331.90725 
L 142.740012 331.90725 
L 142.740012 329.022985 
L 142.40887 329.022985 
z
" style="fill:#348abd;opacity:0.4;"/>
   </g>
   <g id="patch_69">
    <path clip-path="url(#p7b51884927)" d="M 142.740012 331.90725 
L 143.071155 331.90725 
L 143.071155 329.984407 
L 142.740012 329.984407 
z
" style="fill:#348abd;opacity:0.4;"/>
   </g>
   <g id="patch_70">
    <path clip-path="url(#p7b51884927)" d="M 143.071155 331.90725 
L 143.402297 331.90725 
L 143.402297 331.426539 
L 143.071155 331.426539 
z
" style="fill:#348abd;opacity:0.4;"/>
   </g>
   <g id="patch_71">
    <path clip-path="url(#p7b51884927)" d="M 143.402297 331.90725 
L 143.73344 331.90725 
L 143.73344 330.945828 
L 143.402297 330.945828 
z
" style="fill:#348abd;opacity:0.4;"/>
   </g>
   <g id="patch_72">
    <path clip-path="url(#p7b51884927)" d="M 127.113452 331.90725 
L 127.470136 331.90725 
L 127.470136 330.465118 
L 127.113452 330.465118 
z
" style="fill:#988ed5;opacity:0.4;"/>
   </g>
   <g id="patch_73">
    <path clip-path="url(#p7b51884927)" d="M 127.470136 331.90725 
L 127.82682 331.90725 
L 127.82682 329.503696 
L 127.470136 329.503696 
z
" style="fill:#988ed5;opacity:0.4;"/>
   </g>
   <g id="patch_74">
    <path clip-path="url(#p7b51884927)" d="M 127.82682 331.90725 
L 128.183504 331.90725 
L 128.183504 329.503696 
L 127.82682 329.503696 
z
" style="fill:#988ed5;opacity:0.4;"/>
   </g>
   <g id="patch_75">
    <path clip-path="url(#p7b51884927)" d="M 128.183504 331.90725 
L 128.540188 331.90725 
L 128.540188 327.100142 
L 128.183504 327.100142 
z
" style="fill:#988ed5;opacity:0.4;"/>
   </g>
   <g id="patch_76">
    <path clip-path="url(#p7b51884927)" d="M 128.540188 331.90725 
L 128.896871 331.90725 
L 128.896871 321.331613 
L 128.540188 321.331613 
z
" style="fill:#988ed5;opacity:0.4;"/>
   </g>
   <g id="patch_77">
    <path clip-path="url(#p7b51884927)" d="M 128.896871 331.90725 
L 129.253555 331.90725 
L 129.253555 313.15953 
L 128.896871 313.15953 
z
" style="fill:#988ed5;opacity:0.4;"/>
   </g>
   <g id="patch_78">
    <path clip-path="url(#p7b51884927)" d="M 129.253555 331.90725 
L 129.610239 331.90725 
L 129.610239 306.429579 
L 129.253555 306.429579 
z
" style="fill:#988ed5;opacity:0.4;"/>
   </g>
   <g id="patch_79">
    <path clip-path="url(#p7b51884927)" d="M 129.610239 331.90725 
L 129.966923 331.90725 
L 129.966923 292.008255 
L 129.610239 292.008255 
z
" style="fill:#988ed5;opacity:0.4;"/>
   </g>
   <g id="patch_80">
    <path clip-path="url(#p7b51884927)" d="M 129.966923 331.90725 
L 130.323607 331.90725 
L 130.323607 277.106221 
L 129.966923 277.106221 
z
" style="fill:#988ed5;opacity:0.4;"/>
   </g>
   <g id="patch_81">
    <path clip-path="url(#p7b51884927)" d="M 130.323607 331.90725 
L 130.680291 331.90725 
L 130.680291 256.435658 
L 130.323607 256.435658 
z
" style="fill:#988ed5;opacity:0.4;"/>
   </g>
   <g id="patch_82">
    <path clip-path="url(#p7b51884927)" d="M 130.680291 331.90725 
L 131.036975 331.90725 
L 131.036975 229.996565 
L 130.680291 229.996565 
z
" style="fill:#988ed5;opacity:0.4;"/>
   </g>
   <g id="patch_83">
    <path clip-path="url(#p7b51884927)" d="M 131.036975 331.90725 
L 131.393659 331.90725 
L 131.393659 190.09757 
L 131.036975 190.09757 
z
" style="fill:#988ed5;opacity:0.4;"/>
   </g>
   <g id="patch_84">
    <path clip-path="url(#p7b51884927)" d="M 131.393659 331.90725 
L 131.750343 331.90725 
L 131.750343 170.869139 
L 131.393659 170.869139 
z
" style="fill:#988ed5;opacity:0.4;"/>
   </g>
   <g id="patch_85">
    <path clip-path="url(#p7b51884927)" d="M 131.750343 331.90725 
L 132.107027 331.90725 
L 132.107027 137.700095 
L 131.750343 137.700095 
z
" style="fill:#988ed5;opacity:0.4;"/>
   </g>
   <g id="patch_86">
    <path clip-path="url(#p7b51884927)" d="M 132.107027 331.90725 
L 132.463711 331.90725 
L 132.463711 113.183846 
L 132.107027 113.183846 
z
" style="fill:#988ed5;opacity:0.4;"/>
   </g>
   <g id="patch_87">
    <path clip-path="url(#p7b51884927)" d="M 132.463711 331.90725 
L 132.820394 331.90725 
L 132.820394 111.741713 
L 132.463711 111.741713 
z
" style="fill:#988ed5;opacity:0.4;"/>
   </g>
   <g id="patch_88">
    <path clip-path="url(#p7b51884927)" d="M 132.820394 331.90725 
L 133.177078 331.90725 
L 133.177078 79.534091 
L 132.820394 79.534091 
z
" style="fill:#988ed5;opacity:0.4;"/>
   </g>
   <g id="patch_89">
    <path clip-path="url(#p7b51884927)" d="M 133.177078 331.90725 
L 133.533762 331.90725 
L 133.533762 60.30566 
L 133.177078 60.30566 
z
" style="fill:#988ed5;opacity:0.4;"/>
   </g>
   <g id="patch_90">
    <path clip-path="url(#p7b51884927)" d="M 133.533762 331.90725 
L 133.890446 331.90725 
L 133.890446 57.421395 
L 133.533762 57.421395 
z
" style="fill:#988ed5;opacity:0.4;"/>
   </g>
   <g id="patch_91">
    <path clip-path="url(#p7b51884927)" d="M 133.890446 331.90725 
L 134.24713 331.90725 
L 134.24713 44.922915 
L 133.890446 44.922915 
z
" style="fill:#988ed5;opacity:0.4;"/>
   </g>
   <g id="patch_92">
    <path clip-path="url(#p7b51884927)" d="M 134.24713 331.90725 
L 134.603814 331.90725 
L 134.603814 38.192964 
L 134.24713 38.192964 
z
" style="fill:#988ed5;opacity:0.4;"/>
   </g>
   <g id="patch_93">
    <path clip-path="url(#p7b51884927)" d="M 134.603814 331.90725 
L 134.960498 331.90725 
L 134.960498 60.786371 
L 134.603814 60.786371 
z
" style="fill:#988ed5;opacity:0.4;"/>
   </g>
   <g id="patch_94">
    <path clip-path="url(#p7b51884927)" d="M 134.960498 331.90725 
L 135.317182 331.90725 
L 135.317182 58.863528 
L 134.960498 58.863528 
z
" style="fill:#988ed5;opacity:0.4;"/>
   </g>
   <g id="patch_95">
    <path clip-path="url(#p7b51884927)" d="M 135.317182 331.90725 
L 135.673866 331.90725 
L 135.673866 70.881297 
L 135.317182 70.881297 
z
" style="fill:#988ed5;opacity:0.4;"/>
   </g>
   <g id="patch_96">
    <path clip-path="url(#p7b51884927)" d="M 135.673866 331.90725 
L 136.03055 331.90725 
L 136.03055 111.261003 
L 135.673866 111.261003 
z
" style="fill:#988ed5;opacity:0.4;"/>
   </g>
   <g id="patch_97">
    <path clip-path="url(#p7b51884927)" d="M 136.03055 331.90725 
L 136.387234 331.90725 
L 136.387234 131.450855 
L 136.03055 131.450855 
z
" style="fill:#988ed5;opacity:0.4;"/>
   </g>
   <g id="patch_98">
    <path clip-path="url(#p7b51884927)" d="M 136.387234 331.90725 
L 136.743917 331.90725 
L 136.743917 162.697056 
L 136.387234 162.697056 
z
" style="fill:#988ed5;opacity:0.4;"/>
   </g>
   <g id="patch_99">
    <path clip-path="url(#p7b51884927)" d="M 136.743917 331.90725 
L 137.100601 331.90725 
L 137.100601 179.041222 
L 136.743917 179.041222 
z
" style="fill:#988ed5;opacity:0.4;"/>
   </g>
   <g id="patch_100">
    <path clip-path="url(#p7b51884927)" d="M 137.100601 331.90725 
L 137.457285 331.90725 
L 137.457285 211.248845 
L 137.100601 211.248845 
z
" style="fill:#988ed5;opacity:0.4;"/>
   </g>
   <g id="patch_101">
    <path clip-path="url(#p7b51884927)" d="M 137.457285 331.90725 
L 137.813969 331.90725 
L 137.813969 228.073722 
L 137.457285 228.073722 
z
" style="fill:#988ed5;opacity:0.4;"/>
   </g>
   <g id="patch_102">
    <path clip-path="url(#p7b51884927)" d="M 137.813969 331.90725 
L 138.170653 331.90725 
L 138.170653 250.186418 
L 137.813969 250.186418 
z
" style="fill:#988ed5;opacity:0.4;"/>
   </g>
   <g id="patch_103">
    <path clip-path="url(#p7b51884927)" d="M 138.170653 331.90725 
L 138.527337 331.90725 
L 138.527337 265.088452 
L 138.170653 265.088452 
z
" style="fill:#988ed5;opacity:0.4;"/>
   </g>
   <g id="patch_104">
    <path clip-path="url(#p7b51884927)" d="M 138.527337 331.90725 
L 138.884021 331.90725 
L 138.884021 282.39404 
L 138.527337 282.39404 
z
" style="fill:#988ed5;opacity:0.4;"/>
   </g>
   <g id="patch_105">
    <path clip-path="url(#p7b51884927)" d="M 138.884021 331.90725 
L 139.240705 331.90725 
L 139.240705 294.411809 
L 138.884021 294.411809 
z
" style="fill:#988ed5;opacity:0.4;"/>
   </g>
   <g id="patch_106">
    <path clip-path="url(#p7b51884927)" d="M 139.240705 331.90725 
L 139.597389 331.90725 
L 139.597389 289.604701 
L 139.240705 289.604701 
z
" style="fill:#988ed5;opacity:0.4;"/>
   </g>
   <g id="patch_107">
    <path clip-path="url(#p7b51884927)" d="M 139.597389 331.90725 
L 139.954073 331.90725 
L 139.954073 303.064603 
L 139.597389 303.064603 
z
" style="fill:#988ed5;opacity:0.4;"/>
   </g>
   <g id="patch_108">
    <path clip-path="url(#p7b51884927)" d="M 139.954073 331.90725 
L 140.310757 331.90725 
L 140.310757 306.429579 
L 139.954073 306.429579 
z
" style="fill:#988ed5;opacity:0.4;"/>
   </g>
   <g id="patch_109">
    <path clip-path="url(#p7b51884927)" d="M 140.310757 331.90725 
L 140.66744 331.90725 
L 140.66744 315.563084 
L 140.310757 315.563084 
z
" style="fill:#988ed5;opacity:0.4;"/>
   </g>
   <g id="patch_110">
    <path clip-path="url(#p7b51884927)" d="M 140.66744 331.90725 
L 141.024124 331.90725 
L 141.024124 324.215878 
L 140.66744 324.215878 
z
" style="fill:#988ed5;opacity:0.4;"/>
   </g>
   <g id="patch_111">
    <path clip-path="url(#p7b51884927)" d="M 141.024124 331.90725 
L 141.380808 331.90725 
L 141.380808 322.293034 
L 141.024124 322.293034 
z
" style="fill:#988ed5;opacity:0.4;"/>
   </g>
   <g id="patch_112">
    <path clip-path="url(#p7b51884927)" d="M 141.380808 331.90725 
L 141.737492 331.90725 
L 141.737492 326.619431 
L 141.380808 326.619431 
z
" style="fill:#988ed5;opacity:0.4;"/>
   </g>
   <g id="patch_113">
    <path clip-path="url(#p7b51884927)" d="M 141.737492 331.90725 
L 142.094176 331.90725 
L 142.094176 329.984407 
L 141.737492 329.984407 
z
" style="fill:#988ed5;opacity:0.4;"/>
   </g>
   <g id="patch_114">
    <path clip-path="url(#p7b51884927)" d="M 142.094176 331.90725 
L 142.45086 331.90725 
L 142.45086 329.503696 
L 142.094176 329.503696 
z
" style="fill:#988ed5;opacity:0.4;"/>
   </g>
   <g id="patch_115">
    <path clip-path="url(#p7b51884927)" d="M 142.45086 331.90725 
L 142.807544 331.90725 
L 142.807544 330.945828 
L 142.45086 330.945828 
z
" style="fill:#988ed5;opacity:0.4;"/>
   </g>
   <g id="patch_116">
    <path clip-path="url(#p7b51884927)" d="M 142.807544 331.90725 
L 143.164228 331.90725 
L 143.164228 330.465118 
L 142.807544 330.465118 
z
" style="fill:#988ed5;opacity:0.4;"/>
   </g>
   <g id="patch_117">
    <path clip-path="url(#p7b51884927)" d="M 143.164228 331.90725 
L 143.520912 331.90725 
L 143.520912 329.503696 
L 143.164228 329.503696 
z
" style="fill:#988ed5;opacity:0.4;"/>
   </g>
   <g id="patch_118">
    <path clip-path="url(#p7b51884927)" d="M 143.520912 331.90725 
L 143.877596 331.90725 
L 143.877596 331.90725 
L 143.520912 331.90725 
z
" style="fill:#988ed5;opacity:0.4;"/>
   </g>
   <g id="patch_119">
    <path clip-path="url(#p7b51884927)" d="M 143.877596 331.90725 
L 144.23428 331.90725 
L 144.23428 331.90725 
L 143.877596 331.90725 
z
" style="fill:#988ed5;opacity:0.4;"/>
   </g>
   <g id="patch_120">
    <path clip-path="url(#p7b51884927)" d="M 144.23428 331.90725 
L 144.590963 331.90725 
L 144.590963 331.426539 
L 144.23428 331.426539 
z
" style="fill:#988ed5;opacity:0.4;"/>
   </g>
   <g id="patch_121">
    <path clip-path="url(#p7b51884927)" d="M 144.590963 331.90725 
L 144.947647 331.90725 
L 144.947647 331.426539 
L 144.590963 331.426539 
z
" style="fill:#988ed5;opacity:0.4;"/>
   </g>
   <g id="patch_122">
    <path clip-path="url(#p7b51884927)" d="M 60.016694 331.90725 
L 77.967533 331.90725 
L 77.967533 329.984407 
L 60.016694 329.984407 
z
" style="fill:#777777;opacity:0.4;"/>
   </g>
   <g id="patch_123">
    <path clip-path="url(#p7b51884927)" d="M 77.967533 331.90725 
L 95.918372 331.90725 
L 95.918372 329.022985 
L 77.967533 329.022985 
z
" style="fill:#777777;opacity:0.4;"/>
   </g>
   <g id="patch_124">
    <path clip-path="url(#p7b51884927)" d="M 95.918372 331.90725 
L 113.869212 331.90725 
L 113.869212 325.177299 
L 95.918372 325.177299 
z
" style="fill:#777777;opacity:0.4;"/>
   </g>
   <g id="patch_125">
    <path clip-path="url(#p7b51884927)" d="M 113.869212 331.90725 
L 131.820051 331.90725 
L 131.820051 320.850902 
L 113.869212 320.850902 
z
" style="fill:#777777;opacity:0.4;"/>
   </g>
   <g id="patch_126">
    <path clip-path="url(#p7b51884927)" d="M 131.820051 331.90725 
L 149.77089 331.90725 
L 149.77089 322.293034 
L 131.820051 322.293034 
z
" style="fill:#777777;opacity:0.4;"/>
   </g>
   <g id="patch_127">
    <path clip-path="url(#p7b51884927)" d="M 149.77089 331.90725 
L 167.72173 331.90725 
L 167.72173 324.215878 
L 149.77089 324.215878 
z
" style="fill:#777777;opacity:0.4;"/>
   </g>
   <g id="patch_128">
    <path clip-path="url(#p7b51884927)" d="M 167.72173 331.90725 
L 185.672569 331.90725 
L 185.672569 325.65801 
L 167.72173 325.65801 
z
" style="fill:#777777;opacity:0.4;"/>
   </g>
   <g id="patch_129">
    <path clip-path="url(#p7b51884927)" d="M 185.672569 331.90725 
L 203.623408 331.90725 
L 203.623408 330.945828 
L 185.672569 330.945828 
z
" style="fill:#777777;opacity:0.4;"/>
   </g>
   <g id="patch_130">
    <path clip-path="url(#p7b51884927)" d="M 203.623408 331.90725 
L 221.574248 331.90725 
L 221.574248 330.945828 
L 203.623408 330.945828 
z
" style="fill:#777777;opacity:0.4;"/>
   </g>
   <g id="patch_131">
    <path d="M 45.997813 331.90725 
L 45.997813 23.50725 
" style="fill:none;stroke:#ffffff;stroke-linecap:square;stroke-linejoin:miter;"/>
   </g>
   <g id="patch_132">
    <path d="M 45.997812 331.90725 
L 354.413203 331.90725 
" style="fill:none;stroke:#ffffff;stroke-linecap:square;stroke-linejoin:miter;"/>
   </g>
   <g id="text_18">
    <!-- Distribution of Estimators -->
    <defs>
     <path d="M 7.71875 0 
L 7.71875 71.578125 
L 32.375 71.578125 
Q 40.71875 71.578125 45.125 70.5625 
Q 51.265625 69.140625 55.609375 65.4375 
Q 61.28125 60.640625 64.078125 53.1875 
Q 66.890625 45.75 66.890625 36.1875 
Q 66.890625 28.03125 64.984375 21.734375 
Q 63.09375 15.4375 60.109375 11.296875 
Q 57.125 7.171875 53.578125 4.796875 
Q 50.046875 2.4375 45.046875 1.21875 
Q 40.046875 0 33.546875 0 
z
M 17.1875 8.453125 
L 32.46875 8.453125 
Q 39.546875 8.453125 43.578125 9.765625 
Q 47.609375 11.078125 50 13.484375 
Q 53.375 16.84375 55.25 22.53125 
Q 57.125 28.21875 57.125 36.328125 
Q 57.125 47.5625 53.4375 53.59375 
Q 49.75 59.625 44.484375 61.671875 
Q 40.671875 63.140625 32.234375 63.140625 
L 17.1875 63.140625 
z
" id="ArialMT-44"/>
     <path d="M 6.640625 61.46875 
L 6.640625 71.578125 
L 15.4375 71.578125 
L 15.4375 61.46875 
z
M 6.640625 0 
L 6.640625 51.859375 
L 15.4375 51.859375 
L 15.4375 0 
z
" id="ArialMT-69"/>
     <path d="M 3.078125 15.484375 
L 11.765625 16.84375 
Q 12.5 11.625 15.84375 8.84375 
Q 19.1875 6.0625 25.203125 6.0625 
Q 31.25 6.0625 34.171875 8.515625 
Q 37.109375 10.984375 37.109375 14.3125 
Q 37.109375 17.28125 34.515625 19 
Q 32.71875 20.171875 25.53125 21.96875 
Q 15.875 24.421875 12.140625 26.203125 
Q 8.40625 27.984375 6.46875 31.125 
Q 4.546875 34.28125 4.546875 38.09375 
Q 4.546875 41.546875 6.125 44.5 
Q 7.71875 47.46875 10.453125 49.421875 
Q 12.5 50.921875 16.03125 51.96875 
Q 19.578125 53.03125 23.640625 53.03125 
Q 29.734375 53.03125 34.34375 51.265625 
Q 38.96875 49.515625 41.15625 46.5 
Q 43.359375 43.5 44.1875 38.484375 
L 35.59375 37.3125 
Q 35.015625 41.3125 32.203125 43.546875 
Q 29.390625 45.796875 24.265625 45.796875 
Q 18.21875 45.796875 15.625 43.796875 
Q 13.03125 41.796875 13.03125 39.109375 
Q 13.03125 37.40625 14.109375 36.03125 
Q 15.1875 34.625 17.484375 33.6875 
Q 18.796875 33.203125 25.25 31.453125 
Q 34.578125 28.953125 38.25 27.359375 
Q 41.9375 25.78125 44.03125 22.75 
Q 46.140625 19.734375 46.140625 15.234375 
Q 46.140625 10.84375 43.578125 6.953125 
Q 41.015625 3.078125 36.171875 0.953125 
Q 31.34375 -1.171875 25.25 -1.171875 
Q 15.140625 -1.171875 9.84375 3.03125 
Q 4.546875 7.234375 3.078125 15.484375 
" id="ArialMT-73"/>
     <path d="M 25.78125 7.859375 
L 27.046875 0.09375 
Q 23.34375 -0.6875 20.40625 -0.6875 
Q 15.625 -0.6875 12.984375 0.828125 
Q 10.359375 2.34375 9.28125 4.8125 
Q 8.203125 7.28125 8.203125 15.1875 
L 8.203125 45.015625 
L 1.765625 45.015625 
L 1.765625 51.859375 
L 8.203125 51.859375 
L 8.203125 64.703125 
L 16.9375 69.96875 
L 16.9375 51.859375 
L 25.78125 51.859375 
L 25.78125 45.015625 
L 16.9375 45.015625 
L 16.9375 14.703125 
Q 16.9375 10.9375 17.40625 9.859375 
Q 17.875 8.796875 18.921875 8.15625 
Q 19.96875 7.515625 21.921875 7.515625 
Q 23.390625 7.515625 25.78125 7.859375 
" id="ArialMT-74"/>
     <path d="M 14.703125 0 
L 6.546875 0 
L 6.546875 71.578125 
L 15.328125 71.578125 
L 15.328125 46.046875 
Q 20.90625 53.03125 29.546875 53.03125 
Q 34.328125 53.03125 38.59375 51.09375 
Q 42.875 49.171875 45.625 45.671875 
Q 48.390625 42.1875 49.953125 37.25 
Q 51.515625 32.328125 51.515625 26.703125 
Q 51.515625 13.375 44.921875 6.09375 
Q 38.328125 -1.171875 29.109375 -1.171875 
Q 19.921875 -1.171875 14.703125 6.5 
z
M 14.59375 26.3125 
Q 14.59375 17 17.140625 12.84375 
Q 21.296875 6.0625 28.375 6.0625 
Q 34.125 6.0625 38.328125 11.0625 
Q 42.53125 16.0625 42.53125 25.984375 
Q 42.53125 36.140625 38.5 40.96875 
Q 34.46875 45.796875 28.765625 45.796875 
Q 23 45.796875 18.796875 40.796875 
Q 14.59375 35.796875 14.59375 26.3125 
" id="ArialMT-62"/>
     <path d="M 3.328125 25.921875 
Q 3.328125 40.328125 11.328125 47.265625 
Q 18.015625 53.03125 27.640625 53.03125 
Q 38.328125 53.03125 45.109375 46.015625 
Q 51.90625 39.015625 51.90625 26.65625 
Q 51.90625 16.65625 48.90625 10.90625 
Q 45.90625 5.171875 40.15625 2 
Q 34.421875 -1.171875 27.640625 -1.171875 
Q 16.75 -1.171875 10.03125 5.8125 
Q 3.328125 12.796875 3.328125 25.921875 
M 12.359375 25.921875 
Q 12.359375 15.96875 16.703125 11.015625 
Q 21.046875 6.0625 27.640625 6.0625 
Q 34.1875 6.0625 38.53125 11.03125 
Q 42.875 16.015625 42.875 26.21875 
Q 42.875 35.84375 38.5 40.796875 
Q 34.125 45.75 27.640625 45.75 
Q 21.046875 45.75 16.703125 40.8125 
Q 12.359375 35.890625 12.359375 25.921875 
" id="ArialMT-6f"/>
     <path id="ArialMT-20"/>
     <path d="M 8.6875 0 
L 8.6875 45.015625 
L 0.921875 45.015625 
L 0.921875 51.859375 
L 8.6875 51.859375 
L 8.6875 57.375 
Q 8.6875 62.59375 9.625 65.140625 
Q 10.890625 68.5625 14.078125 70.671875 
Q 17.28125 72.796875 23.046875 72.796875 
Q 26.765625 72.796875 31.25 71.921875 
L 29.9375 64.265625 
Q 27.203125 64.75 24.75 64.75 
Q 20.75 64.75 19.09375 63.03125 
Q 17.4375 61.328125 17.4375 56.640625 
L 17.4375 51.859375 
L 27.546875 51.859375 
L 27.546875 45.015625 
L 17.4375 45.015625 
L 17.4375 0 
z
" id="ArialMT-66"/>
     <path d="M 7.90625 0 
L 7.90625 71.578125 
L 59.671875 71.578125 
L 59.671875 63.140625 
L 17.390625 63.140625 
L 17.390625 41.21875 
L 56.984375 41.21875 
L 56.984375 32.8125 
L 17.390625 32.8125 
L 17.390625 8.453125 
L 61.328125 8.453125 
L 61.328125 0 
z
" id="ArialMT-45"/>
     <path d="M 6.59375 0 
L 6.59375 51.859375 
L 14.453125 51.859375 
L 14.453125 44.578125 
Q 16.890625 48.390625 20.9375 50.703125 
Q 25 53.03125 30.171875 53.03125 
Q 35.9375 53.03125 39.625 50.640625 
Q 43.3125 48.25 44.828125 43.953125 
Q 50.984375 53.03125 60.84375 53.03125 
Q 68.5625 53.03125 72.703125 48.75 
Q 76.859375 44.484375 76.859375 35.59375 
L 76.859375 0 
L 68.109375 0 
L 68.109375 32.671875 
Q 68.109375 37.9375 67.25 40.25 
Q 66.40625 42.578125 64.15625 43.984375 
Q 61.921875 45.40625 58.890625 45.40625 
Q 53.421875 45.40625 49.796875 41.765625 
Q 46.1875 38.140625 46.1875 30.125 
L 46.1875 0 
L 37.40625 0 
L 37.40625 33.6875 
Q 37.40625 39.546875 35.25 42.46875 
Q 33.109375 45.40625 28.21875 45.40625 
Q 24.515625 45.40625 21.359375 43.453125 
Q 18.21875 41.5 16.796875 37.734375 
Q 15.375 33.984375 15.375 26.90625 
L 15.375 0 
z
" id="ArialMT-6d"/>
    </defs>
    <g style="fill:#262626;" transform="translate(120.183133 17.50725)scale(0.144 -0.144)">
     <use xlink:href="#ArialMT-44"/>
     <use x="72.216797" xlink:href="#ArialMT-69"/>
     <use x="94.433594" xlink:href="#ArialMT-73"/>
     <use x="144.433594" xlink:href="#ArialMT-74"/>
     <use x="172.216797" xlink:href="#ArialMT-72"/>
     <use x="205.517578" xlink:href="#ArialMT-69"/>
     <use x="227.734375" xlink:href="#ArialMT-62"/>
     <use x="283.349609" xlink:href="#ArialMT-75"/>
     <use x="338.964844" xlink:href="#ArialMT-74"/>
     <use x="366.748047" xlink:href="#ArialMT-69"/>
     <use x="388.964844" xlink:href="#ArialMT-6f"/>
     <use x="444.580078" xlink:href="#ArialMT-6e"/>
     <use x="500.195312" xlink:href="#ArialMT-20"/>
     <use x="527.978516" xlink:href="#ArialMT-6f"/>
     <use x="583.59375" xlink:href="#ArialMT-66"/>
     <use x="611.376953" xlink:href="#ArialMT-20"/>
     <use x="639.160156" xlink:href="#ArialMT-45"/>
     <use x="705.859375" xlink:href="#ArialMT-73"/>
     <use x="755.859375" xlink:href="#ArialMT-74"/>
     <use x="783.642578" xlink:href="#ArialMT-69"/>
     <use x="805.859375" xlink:href="#ArialMT-6d"/>
     <use x="889.160156" xlink:href="#ArialMT-61"/>
     <use x="944.775391" xlink:href="#ArialMT-74"/>
     <use x="972.558594" xlink:href="#ArialMT-6f"/>
     <use x="1028.173828" xlink:href="#ArialMT-72"/>
     <use x="1061.474609" xlink:href="#ArialMT-73"/>
    </g>
   </g>
  </g>
  <g id="legend_1">
   <g id="text_19">
    <!-- variable -->
    <defs>
     <path d="M 21 0 
L 1.265625 51.859375 
L 10.546875 51.859375 
L 21.6875 20.796875 
Q 23.484375 15.765625 25 10.359375 
Q 26.171875 14.453125 28.265625 20.21875 
L 39.796875 51.859375 
L 48.828125 51.859375 
L 29.203125 0 
z
" id="ArialMT-76"/>
    </defs>
    <g style="fill:#262626;" transform="translate(400.010859 159.925031)scale(0.12 -0.12)">
     <use xlink:href="#ArialMT-76"/>
     <use x="50" xlink:href="#ArialMT-61"/>
     <use x="105.615234" xlink:href="#ArialMT-72"/>
     <use x="138.916016" xlink:href="#ArialMT-69"/>
     <use x="161.132812" xlink:href="#ArialMT-61"/>
     <use x="216.748047" xlink:href="#ArialMT-62"/>
     <use x="272.363281" xlink:href="#ArialMT-6c"/>
     <use x="294.580078" xlink:href="#ArialMT-65"/>
    </g>
   </g>
   <g id="patch_133">
    <path d="M 361.170391 174.467844 
L 381.170391 174.467844 
L 381.170391 167.467844 
L 361.170391 167.467844 
z
" style="fill:#e24a33;opacity:0.4;"/>
   </g>
   <g id="text_20">
    <!-- true -->
    <g style="fill:#262626;" transform="translate(389.170391 174.467844)scale(0.1 -0.1)">
     <use xlink:href="#ArialMT-74"/>
     <use x="27.783203" xlink:href="#ArialMT-72"/>
     <use x="61.083984" xlink:href="#ArialMT-75"/>
     <use x="116.699219" xlink:href="#ArialMT-65"/>
    </g>
   </g>
   <g id="patch_134">
    <path d="M 361.170391 188.613156 
L 381.170391 188.613156 
L 381.170391 181.613156 
L 361.170391 181.613156 
z
" style="fill:#348abd;opacity:0.4;"/>
   </g>
   <g id="text_21">
    <!-- bootstrap -->
    <defs>
     <path d="M 6.59375 -19.875 
L 6.59375 51.859375 
L 14.59375 51.859375 
L 14.59375 45.125 
Q 17.4375 49.078125 21 51.046875 
Q 24.5625 53.03125 29.640625 53.03125 
Q 36.28125 53.03125 41.359375 49.609375 
Q 46.4375 46.1875 49.015625 39.953125 
Q 51.609375 33.734375 51.609375 26.3125 
Q 51.609375 18.359375 48.75 11.984375 
Q 45.90625 5.609375 40.453125 2.21875 
Q 35.015625 -1.171875 29 -1.171875 
Q 24.609375 -1.171875 21.109375 0.6875 
Q 17.625 2.546875 15.375 5.375 
L 15.375 -19.875 
z
M 14.546875 25.640625 
Q 14.546875 15.625 18.59375 10.84375 
Q 22.65625 6.0625 28.421875 6.0625 
Q 34.28125 6.0625 38.453125 11.015625 
Q 42.625 15.96875 42.625 26.375 
Q 42.625 36.28125 38.546875 41.203125 
Q 34.46875 46.140625 28.8125 46.140625 
Q 23.1875 46.140625 18.859375 40.890625 
Q 14.546875 35.640625 14.546875 25.640625 
" id="ArialMT-70"/>
    </defs>
    <g style="fill:#262626;" transform="translate(389.170391 188.613156)scale(0.1 -0.1)">
     <use xlink:href="#ArialMT-62"/>
     <use x="55.615234" xlink:href="#ArialMT-6f"/>
     <use x="111.230469" xlink:href="#ArialMT-6f"/>
     <use x="166.845703" xlink:href="#ArialMT-74"/>
     <use x="194.628906" xlink:href="#ArialMT-73"/>
     <use x="244.628906" xlink:href="#ArialMT-74"/>
     <use x="272.412109" xlink:href="#ArialMT-72"/>
     <use x="305.712891" xlink:href="#ArialMT-61"/>
     <use x="361.328125" xlink:href="#ArialMT-70"/>
    </g>
   </g>
   <g id="patch_135">
    <path d="M 361.170391 202.758469 
L 381.170391 202.758469 
L 381.170391 195.758469 
L 361.170391 195.758469 
z
" style="fill:#988ed5;opacity:0.4;"/>
   </g>
   <g id="text_22">
    <!-- parametric bootstrap -->
    <g style="fill:#262626;" transform="translate(389.170391 202.758469)scale(0.1 -0.1)">
     <use xlink:href="#ArialMT-70"/>
     <use x="55.615234" xlink:href="#ArialMT-61"/>
     <use x="111.230469" xlink:href="#ArialMT-72"/>
     <use x="144.53125" xlink:href="#ArialMT-61"/>
     <use x="200.146484" xlink:href="#ArialMT-6d"/>
     <use x="283.447266" xlink:href="#ArialMT-65"/>
     <use x="339.0625" xlink:href="#ArialMT-74"/>
     <use x="366.845703" xlink:href="#ArialMT-72"/>
     <use x="400.146484" xlink:href="#ArialMT-69"/>
     <use x="422.363281" xlink:href="#ArialMT-63"/>
     <use x="472.363281" xlink:href="#ArialMT-20"/>
     <use x="500.146484" xlink:href="#ArialMT-62"/>
     <use x="555.761719" xlink:href="#ArialMT-6f"/>
     <use x="611.376953" xlink:href="#ArialMT-6f"/>
     <use x="666.992188" xlink:href="#ArialMT-74"/>
     <use x="694.775391" xlink:href="#ArialMT-73"/>
     <use x="744.775391" xlink:href="#ArialMT-74"/>
     <use x="772.558594" xlink:href="#ArialMT-72"/>
     <use x="805.859375" xlink:href="#ArialMT-61"/>
     <use x="861.474609" xlink:href="#ArialMT-70"/>
    </g>
   </g>
   <g id="patch_136">
    <path d="M 361.170391 216.903781 
L 381.170391 216.903781 
L 381.170391 209.903781 
L 361.170391 209.903781 
z
" style="fill:#777777;opacity:0.4;"/>
   </g>
   <g id="text_23">
    <!-- delta -->
    <defs>
     <path d="M 40.234375 0 
L 40.234375 6.546875 
Q 35.296875 -1.171875 25.734375 -1.171875 
Q 19.53125 -1.171875 14.328125 2.25 
Q 9.125 5.671875 6.265625 11.796875 
Q 3.421875 17.921875 3.421875 25.875 
Q 3.421875 33.640625 6 39.96875 
Q 8.59375 46.296875 13.765625 49.65625 
Q 18.953125 53.03125 25.34375 53.03125 
Q 30.03125 53.03125 33.6875 51.046875 
Q 37.359375 49.078125 39.65625 45.90625 
L 39.65625 71.578125 
L 48.390625 71.578125 
L 48.390625 0 
z
M 12.453125 25.875 
Q 12.453125 15.921875 16.640625 10.984375 
Q 20.84375 6.0625 26.5625 6.0625 
Q 32.328125 6.0625 36.34375 10.765625 
Q 40.375 15.484375 40.375 25.140625 
Q 40.375 35.796875 36.265625 40.765625 
Q 32.171875 45.75 26.171875 45.75 
Q 20.3125 45.75 16.375 40.96875 
Q 12.453125 36.1875 12.453125 25.875 
" id="ArialMT-64"/>
    </defs>
    <g style="fill:#262626;" transform="translate(389.170391 216.903781)scale(0.1 -0.1)">
     <use xlink:href="#ArialMT-64"/>
     <use x="55.615234" xlink:href="#ArialMT-65"/>
     <use x="111.230469" xlink:href="#ArialMT-6c"/>
     <use x="133.447266" xlink:href="#ArialMT-74"/>
     <use x="161.230469" xlink:href="#ArialMT-61"/>
    </g>
   </g>
  </g>
 </g>
 <defs>
  <clipPath id="p7b51884927">
   <rect height="308.4" width="308.415391" x="45.997813" y="23.50725"/>
  </clipPath>
 </defs>
</svg>
