<?xml version="1.0" encoding="utf-8" standalone="no"?>
<!DOCTYPE svg PUBLIC "-//W3C//DTD SVG 1.1//EN"
  "http://www.w3.org/Graphics/SVG/1.1/DTD/svg11.dtd">
<!-- Created with matplotlib (http://matplotlib.org/) -->
<svg height="720pt" version="1.1" viewBox="0 0 720 720" width="720pt" xmlns="http://www.w3.org/2000/svg" xmlns:xlink="http://www.w3.org/1999/xlink">
 <defs>
  <style type="text/css">
*{stroke-linecap:butt;stroke-linejoin:round;}
  </style>
 </defs>
 <g id="figure_1">
  <g id="patch_1">
   <path d="M 0 720 
L 720 720 
L 720 0 
L 0 0 
z
" style="fill:#ffffff;"/>
  </g>
  <g id="axes_1">
   <g id="patch_2">
    <path d="M 90 630 
L 648 630 
L 648 86.4 
L 90 86.4 
z
" style="fill:#e5e5e5;"/>
   </g>
   <g id="matplotlib.axis_1">
    <g id="xtick_1">
     <g id="line2d_1"/>
     <g id="text_1">
      <!-- true -->
      <defs>
       <path d="M 27.046875 0.390625 
Q 25.046875 -0.140625 22.96875 -0.453125 
Q 20.90625 -0.78125 18.171875 -0.78125 
Q 7.625 -0.78125 7.625 11.1875 
L 7.625 46.4375 
L 1.515625 46.4375 
L 1.515625 52.828125 
L 7.953125 52.828125 
L 10.546875 64.65625 
L 16.40625 64.65625 
L 16.40625 52.828125 
L 26.171875 52.828125 
L 26.171875 46.4375 
L 16.40625 46.4375 
L 16.40625 13.09375 
Q 16.40625 9.28125 17.640625 7.734375 
Q 18.890625 6.203125 21.96875 6.203125 
Q 23.25 6.203125 24.4375 6.390625 
Q 25.640625 6.59375 27.046875 6.890625 
z
" id="LiberationSans-74"/>
       <path d="M 6.9375 0 
L 6.9375 40.53125 
Q 6.9375 42.1875 6.90625 43.921875 
Q 6.890625 45.65625 6.828125 47.265625 
Q 6.78125 48.875 6.734375 50.28125 
Q 6.6875 51.703125 6.640625 52.828125 
L 14.9375 52.828125 
Q 14.984375 51.703125 15.0625 50.265625 
Q 15.140625 48.828125 15.203125 47.3125 
Q 15.28125 45.796875 15.296875 44.40625 
Q 15.328125 43.015625 15.328125 42.046875 
L 15.53125 42.046875 
Q 16.453125 45.0625 17.5 47.28125 
Q 18.5625 49.515625 19.96875 50.953125 
Q 21.390625 52.390625 23.34375 53.09375 
Q 25.296875 53.8125 28.078125 53.8125 
Q 29.15625 53.8125 30.125 53.640625 
Q 31.109375 53.46875 31.640625 53.328125 
L 31.640625 45.265625 
Q 30.765625 45.515625 29.59375 45.625 
Q 28.421875 45.75 26.953125 45.75 
Q 23.921875 45.75 21.796875 44.375 
Q 19.671875 43.015625 18.328125 40.59375 
Q 17 38.1875 16.359375 34.84375 
Q 15.71875 31.5 15.71875 27.546875 
L 15.71875 0 
z
" id="LiberationSans-72"/>
       <path d="M 15.328125 52.828125 
L 15.328125 19.34375 
Q 15.328125 15.484375 15.890625 12.890625 
Q 16.453125 10.296875 17.71875 8.703125 
Q 19 7.125 21.0625 6.46875 
Q 23.140625 5.8125 26.21875 5.8125 
Q 29.34375 5.8125 31.859375 6.90625 
Q 34.375 8.015625 36.15625 10.078125 
Q 37.9375 12.15625 38.90625 15.203125 
Q 39.890625 18.265625 39.890625 22.21875 
L 39.890625 52.828125 
L 48.6875 52.828125 
L 48.6875 11.28125 
Q 48.6875 9.625 48.703125 7.78125 
Q 48.734375 5.953125 48.78125 4.3125 
Q 48.828125 2.6875 48.875 1.515625 
Q 48.921875 0.34375 48.96875 0 
L 40.671875 0 
Q 40.625 0.25 40.578125 1.3125 
Q 40.53125 2.390625 40.453125 3.78125 
Q 40.375 5.171875 40.328125 6.609375 
Q 40.28125 8.0625 40.28125 9.03125 
L 40.140625 9.03125 
Q 38.875 6.734375 37.359375 4.875 
Q 35.84375 3.03125 33.84375 1.734375 
Q 31.84375 0.4375 29.25 -0.265625 
Q 26.65625 -0.984375 23.25 -0.984375 
Q 18.84375 -0.984375 15.671875 0.09375 
Q 12.5 1.171875 10.453125 3.421875 
Q 8.40625 5.671875 7.453125 9.1875 
Q 6.5 12.703125 6.5 17.625 
L 6.5 52.828125 
z
" id="LiberationSans-75"/>
       <path d="M 13.484375 24.5625 
Q 13.484375 20.40625 14.328125 16.90625 
Q 15.1875 13.421875 16.96875 10.90625 
Q 18.75 8.40625 21.53125 7 
Q 24.3125 5.609375 28.21875 5.609375 
Q 33.9375 5.609375 37.375 7.90625 
Q 40.828125 10.203125 42.046875 13.71875 
L 49.75 11.53125 
Q 48.921875 9.328125 47.4375 7.109375 
Q 45.953125 4.890625 43.453125 3.09375 
Q 40.96875 1.3125 37.234375 0.15625 
Q 33.5 -0.984375 28.21875 -0.984375 
Q 16.5 -0.984375 10.375 6 
Q 4.25 12.984375 4.25 26.765625 
Q 4.25 34.1875 6.09375 39.328125 
Q 7.953125 44.484375 11.171875 47.703125 
Q 14.40625 50.921875 18.703125 52.359375 
Q 23 53.8125 27.875 53.8125 
Q 34.515625 53.8125 38.984375 51.65625 
Q 43.453125 49.515625 46.15625 45.71875 
Q 48.875 41.9375 50.015625 36.8125 
Q 51.171875 31.6875 51.171875 25.734375 
L 51.171875 24.5625 
z
M 42.09375 31.296875 
Q 41.359375 39.65625 37.84375 43.484375 
Q 34.328125 47.3125 27.734375 47.3125 
Q 25.53125 47.3125 23.109375 46.609375 
Q 20.703125 45.90625 18.65625 44.09375 
Q 16.609375 42.28125 15.1875 39.171875 
Q 13.765625 36.078125 13.578125 31.296875 
z
" id="LiberationSans-65"/>
      </defs>
      <g style="fill:#555555;" transform="translate(151.135156 644.246875)scale(0.1 -0.1)">
       <use xlink:href="#LiberationSans-74"/>
       <use x="27.783203" xlink:href="#LiberationSans-72"/>
       <use x="61.083984" xlink:href="#LiberationSans-75"/>
       <use x="116.699219" xlink:href="#LiberationSans-65"/>
      </g>
     </g>
    </g>
    <g id="xtick_2">
     <g id="line2d_2"/>
     <g id="text_2">
      <!-- bootstrap -->
      <defs>
       <path d="M 51.421875 26.65625 
Q 51.421875 -0.984375 31.984375 -0.984375 
Q 25.984375 -0.984375 22 1.1875 
Q 18.015625 3.375 15.53125 8.203125 
L 15.4375 8.203125 
Q 15.4375 6.9375 15.359375 5.5625 
Q 15.28125 4.203125 15.203125 3.03125 
Q 15.140625 1.859375 15.0625 1.03125 
Q 14.984375 0.203125 14.9375 0 
L 6.453125 0 
Q 6.5 0.4375 6.546875 1.484375 
Q 6.59375 2.546875 6.640625 4 
Q 6.6875 5.46875 6.703125 7.21875 
Q 6.734375 8.984375 6.734375 10.890625 
L 6.734375 72.46875 
L 15.53125 72.46875 
L 15.53125 51.8125 
Q 15.53125 50.34375 15.5 49 
Q 15.484375 47.65625 15.4375 46.625 
Q 15.375 45.40625 15.328125 44.34375 
L 15.53125 44.34375 
Q 17.96875 49.421875 22 51.609375 
Q 26.03125 53.8125 31.984375 53.8125 
Q 42 53.8125 46.703125 47.0625 
Q 51.421875 40.328125 51.421875 26.65625 
M 42.1875 26.375 
Q 42.1875 31.84375 41.5 35.75 
Q 40.828125 39.65625 39.3125 42.15625 
Q 37.796875 44.671875 35.453125 45.84375 
Q 33.109375 47.015625 29.734375 47.015625 
Q 26.265625 47.015625 23.609375 45.890625 
Q 20.953125 44.78125 19.171875 42.28125 
Q 17.390625 39.796875 16.453125 35.734375 
Q 15.53125 31.6875 15.53125 25.828125 
Q 15.53125 20.171875 16.453125 16.3125 
Q 17.390625 12.453125 19.171875 10.03125 
Q 20.953125 7.625 23.578125 6.5625 
Q 26.21875 5.515625 29.640625 5.515625 
Q 32.859375 5.515625 35.203125 6.640625 
Q 37.546875 7.765625 39.109375 10.25 
Q 40.671875 12.75 41.421875 16.71875 
Q 42.1875 20.703125 42.1875 26.375 
" id="LiberationSans-62"/>
       <path d="M 51.421875 26.46875 
Q 51.421875 12.59375 45.3125 5.796875 
Q 39.203125 -0.984375 27.59375 -0.984375 
Q 22.078125 -0.984375 17.71875 0.671875 
Q 13.375 2.34375 10.375 5.765625 
Q 7.375 9.1875 5.78125 14.328125 
Q 4.203125 19.484375 4.203125 26.46875 
Q 4.203125 53.8125 27.875 53.8125 
Q 34.03125 53.8125 38.5 52.09375 
Q 42.96875 50.390625 45.828125 46.96875 
Q 48.6875 43.5625 50.046875 38.421875 
Q 51.421875 33.296875 51.421875 26.46875 
M 42.1875 26.46875 
Q 42.1875 32.625 41.234375 36.625 
Q 40.28125 40.625 38.453125 43.015625 
Q 36.625 45.40625 33.984375 46.359375 
Q 31.34375 47.3125 28.03125 47.3125 
Q 24.65625 47.3125 21.9375 46.3125 
Q 19.234375 45.3125 17.328125 42.890625 
Q 15.4375 40.484375 14.421875 36.46875 
Q 13.421875 32.46875 13.421875 26.46875 
Q 13.421875 20.3125 14.5 16.28125 
Q 15.578125 12.25 17.453125 9.859375 
Q 19.34375 7.46875 21.90625 6.484375 
Q 24.46875 5.515625 27.484375 5.515625 
Q 30.859375 5.515625 33.59375 6.46875 
Q 36.328125 7.421875 38.234375 9.8125 
Q 40.140625 12.203125 41.15625 16.25 
Q 42.1875 20.3125 42.1875 26.46875 
" id="LiberationSans-6f"/>
       <path d="M 46.390625 14.59375 
Q 46.390625 10.890625 44.9375 7.984375 
Q 43.5 5.078125 40.765625 3.09375 
Q 38.03125 1.125 34.046875 0.0625 
Q 30.078125 -0.984375 24.953125 -0.984375 
Q 20.359375 -0.984375 16.671875 -0.265625 
Q 12.984375 0.4375 10.203125 2 
Q 7.421875 3.5625 5.53125 6.125 
Q 3.65625 8.6875 2.78125 12.40625 
L 10.546875 13.921875 
Q 11.671875 9.671875 15.1875 7.6875 
Q 18.703125 5.71875 24.953125 5.71875 
Q 27.78125 5.71875 30.140625 6.109375 
Q 32.515625 6.5 34.21875 7.453125 
Q 35.9375 8.40625 36.890625 9.984375 
Q 37.84375 11.578125 37.84375 13.921875 
Q 37.84375 16.3125 36.71875 17.84375 
Q 35.59375 19.390625 33.59375 20.40625 
Q 31.59375 21.4375 28.734375 22.1875 
Q 25.875 22.953125 22.46875 23.875 
Q 19.28125 24.703125 16.15625 25.734375 
Q 13.03125 26.765625 10.515625 28.4375 
Q 8.015625 30.125 6.453125 32.609375 
Q 4.890625 35.109375 4.890625 38.875 
Q 4.890625 46.09375 10.03125 49.875 
Q 15.1875 53.65625 25.046875 53.65625 
Q 33.796875 53.65625 38.9375 50.578125 
Q 44.09375 47.515625 45.453125 40.71875 
L 37.546875 39.75 
Q 37.109375 41.796875 35.9375 43.1875 
Q 34.765625 44.578125 33.109375 45.4375 
Q 31.453125 46.296875 29.375 46.65625 
Q 27.296875 47.015625 25.046875 47.015625 
Q 19.09375 47.015625 16.25 45.203125 
Q 13.421875 43.40625 13.421875 39.75 
Q 13.421875 37.59375 14.46875 36.203125 
Q 15.53125 34.8125 17.40625 33.859375 
Q 19.28125 32.90625 21.921875 32.203125 
Q 24.5625 31.5 27.734375 30.71875 
Q 29.828125 30.171875 32.03125 29.5625 
Q 34.234375 28.953125 36.296875 28.09375 
Q 38.375 27.25 40.203125 26.09375 
Q 42.046875 24.953125 43.40625 23.34375 
Q 44.78125 21.734375 45.578125 19.578125 
Q 46.390625 17.4375 46.390625 14.59375 
" id="LiberationSans-73"/>
       <path d="M 20.21875 -0.984375 
Q 12.25 -0.984375 8.25 3.21875 
Q 4.25 7.421875 4.25 14.75 
Q 4.25 19.96875 6.21875 23.3125 
Q 8.203125 26.65625 11.390625 28.5625 
Q 14.59375 30.46875 18.6875 31.203125 
Q 22.796875 31.9375 27.046875 32.03125 
L 38.921875 32.234375 
L 38.921875 35.109375 
Q 38.921875 38.375 38.234375 40.671875 
Q 37.546875 42.96875 36.125 44.375 
Q 34.71875 45.796875 32.59375 46.453125 
Q 30.46875 47.125 27.59375 47.125 
Q 25.046875 47.125 23 46.75 
Q 20.953125 46.390625 19.4375 45.4375 
Q 17.921875 44.484375 16.984375 42.84375 
Q 16.0625 41.21875 15.765625 38.71875 
L 6.59375 39.546875 
Q 7.078125 42.671875 8.4375 45.28125 
Q 9.8125 47.90625 12.328125 49.796875 
Q 14.84375 51.703125 18.625 52.75 
Q 22.40625 53.8125 27.78125 53.8125 
Q 37.75 53.8125 42.765625 49.234375 
Q 47.796875 44.671875 47.796875 36.03125 
L 47.796875 13.28125 
Q 47.796875 9.375 48.828125 7.390625 
Q 49.859375 5.421875 52.734375 5.421875 
Q 53.46875 5.421875 54.203125 5.515625 
Q 54.9375 5.609375 55.609375 5.765625 
L 55.609375 0.296875 
Q 53.953125 -0.09375 52.3125 -0.28125 
Q 50.6875 -0.484375 48.828125 -0.484375 
Q 46.34375 -0.484375 44.5625 0.171875 
Q 42.78125 0.828125 41.65625 2.171875 
Q 40.53125 3.515625 39.9375 5.484375 
Q 39.359375 7.46875 39.203125 10.109375 
L 38.921875 10.109375 
Q 37.5 7.5625 35.8125 5.515625 
Q 34.125 3.46875 31.875 2.03125 
Q 29.640625 0.59375 26.78125 -0.1875 
Q 23.921875 -0.984375 20.21875 -0.984375 
M 22.21875 5.609375 
Q 26.421875 5.609375 29.5625 7.140625 
Q 32.71875 8.6875 34.78125 11.078125 
Q 36.859375 13.484375 37.890625 16.3125 
Q 38.921875 19.140625 38.921875 21.734375 
L 38.921875 26.078125 
L 29.296875 25.875 
Q 26.078125 25.828125 23.171875 25.40625 
Q 20.265625 25 18.0625 23.78125 
Q 15.875 22.5625 14.578125 20.359375 
Q 13.28125 18.171875 13.28125 14.59375 
Q 13.28125 10.296875 15.59375 7.953125 
Q 17.921875 5.609375 22.21875 5.609375 
" id="LiberationSans-61"/>
       <path d="M 51.421875 26.65625 
Q 51.421875 20.65625 50.4375 15.578125 
Q 49.46875 10.5 47.1875 6.828125 
Q 44.921875 3.171875 41.1875 1.09375 
Q 37.453125 -0.984375 31.984375 -0.984375 
Q 26.3125 -0.984375 22.0625 1.171875 
Q 17.828125 3.328125 15.578125 8.203125 
L 15.328125 8.203125 
Q 15.375 8.109375 15.40625 7.328125 
Q 15.4375 6.546875 15.453125 5.375 
Q 15.484375 4.203125 15.5 2.75 
Q 15.53125 1.3125 15.53125 -0.09375 
L 15.53125 -20.75 
L 6.734375 -20.75 
L 6.734375 42.046875 
Q 6.734375 43.953125 6.703125 45.703125 
Q 6.6875 47.46875 6.640625 48.90625 
Q 6.59375 50.34375 6.546875 51.359375 
Q 6.5 52.390625 6.453125 52.828125 
L 14.9375 52.828125 
Q 14.984375 52.6875 15.0625 51.796875 
Q 15.140625 50.921875 15.203125 49.671875 
Q 15.28125 48.4375 15.359375 47.015625 
Q 15.4375 45.609375 15.4375 44.34375 
L 15.625 44.34375 
Q 16.84375 46.875 18.40625 48.65625 
Q 19.96875 50.4375 21.96875 51.578125 
Q 23.96875 52.734375 26.4375 53.25 
Q 28.90625 53.765625 31.984375 53.765625 
Q 37.453125 53.765625 41.1875 51.8125 
Q 44.921875 49.859375 47.1875 46.3125 
Q 49.46875 42.78125 50.4375 37.765625 
Q 51.421875 32.765625 51.421875 26.65625 
M 42.1875 26.46875 
Q 42.1875 31.34375 41.59375 35.15625 
Q 41.015625 38.96875 39.578125 41.59375 
Q 38.140625 44.234375 35.734375 45.59375 
Q 33.34375 46.96875 29.734375 46.96875 
Q 26.8125 46.96875 24.21875 46.140625 
Q 21.625 45.3125 19.703125 42.96875 
Q 17.78125 40.625 16.65625 36.5 
Q 15.53125 32.375 15.53125 25.78125 
Q 15.53125 20.171875 16.453125 16.28125 
Q 17.390625 12.40625 19.171875 10.015625 
Q 20.953125 7.625 23.578125 6.5625 
Q 26.21875 5.515625 29.640625 5.515625 
Q 33.296875 5.515625 35.71875 6.921875 
Q 38.140625 8.34375 39.578125 11.03125 
Q 41.015625 13.71875 41.59375 17.59375 
Q 42.1875 21.484375 42.1875 26.46875 
" id="LiberationSans-70"/>
      </defs>
      <g style="fill:#555555;" transform="translate(278.404688 644.246875)scale(0.1 -0.1)">
       <use xlink:href="#LiberationSans-62"/>
       <use x="55.615234" xlink:href="#LiberationSans-6f"/>
       <use x="111.230469" xlink:href="#LiberationSans-6f"/>
       <use x="166.845703" xlink:href="#LiberationSans-74"/>
       <use x="194.628906" xlink:href="#LiberationSans-73"/>
       <use x="244.628906" xlink:href="#LiberationSans-74"/>
       <use x="272.412109" xlink:href="#LiberationSans-72"/>
       <use x="305.712891" xlink:href="#LiberationSans-61"/>
       <use x="361.328125" xlink:href="#LiberationSans-70"/>
      </g>
     </g>
    </g>
    <g id="xtick_3">
     <g id="line2d_3"/>
     <g id="text_3">
      <!-- parametric bootstrap -->
      <defs>
       <path d="M 37.5 0 
L 37.5 33.5 
Q 37.5 37.359375 37.015625 39.9375 
Q 36.53125 42.53125 35.375 44.109375 
Q 34.234375 45.703125 32.375 46.359375 
Q 30.515625 47.015625 27.828125 47.015625 
Q 25.046875 47.015625 22.796875 45.921875 
Q 20.5625 44.828125 18.96875 42.75 
Q 17.390625 40.671875 16.53125 37.625 
Q 15.671875 34.578125 15.671875 30.609375 
L 15.671875 0 
L 6.9375 0 
L 6.9375 41.546875 
Q 6.9375 43.21875 6.90625 45.046875 
Q 6.890625 46.875 6.828125 48.5 
Q 6.78125 50.140625 6.734375 51.3125 
Q 6.6875 52.484375 6.640625 52.828125 
L 14.9375 52.828125 
Q 14.984375 52.59375 15.03125 51.515625 
Q 15.09375 50.4375 15.15625 49.046875 
Q 15.234375 47.65625 15.28125 46.21875 
Q 15.328125 44.78125 15.328125 43.796875 
L 15.484375 43.796875 
Q 16.65625 46.09375 18.015625 47.953125 
Q 19.390625 49.8125 21.21875 51.09375 
Q 23.046875 52.390625 25.40625 53.09375 
Q 27.78125 53.8125 30.90625 53.8125 
Q 36.921875 53.8125 40.40625 51.421875 
Q 43.890625 49.03125 45.265625 43.796875 
L 45.40625 43.796875 
Q 46.578125 46.09375 48.046875 47.953125 
Q 49.515625 49.8125 51.46875 51.09375 
Q 53.421875 52.390625 55.859375 53.09375 
Q 58.296875 53.8125 61.421875 53.8125 
Q 65.4375 53.8125 68.328125 52.734375 
Q 71.234375 51.65625 73.09375 49.40625 
Q 74.953125 47.171875 75.828125 43.625 
Q 76.703125 40.09375 76.703125 35.203125 
L 76.703125 0 
L 68.015625 0 
L 68.015625 33.5 
Q 68.015625 37.359375 67.53125 39.9375 
Q 67.046875 42.53125 65.890625 44.109375 
Q 64.75 45.703125 62.890625 46.359375 
Q 61.03125 47.015625 58.34375 47.015625 
Q 55.5625 47.015625 53.3125 45.96875 
Q 51.078125 44.921875 49.484375 42.875 
Q 47.90625 40.828125 47.046875 37.75 
Q 46.1875 34.671875 46.1875 30.609375 
L 46.1875 0 
z
" id="LiberationSans-6d"/>
       <path d="M 6.6875 64.0625 
L 6.6875 72.46875 
L 15.484375 72.46875 
L 15.484375 64.0625 
z
M 6.6875 0 
L 6.6875 52.828125 
L 15.484375 52.828125 
L 15.484375 0 
z
" id="LiberationSans-69"/>
       <path d="M 13.421875 26.65625 
Q 13.421875 22.125 14.078125 18.3125 
Q 14.75 14.5 16.3125 11.734375 
Q 17.875 8.984375 20.4375 7.46875 
Q 23 5.953125 26.765625 5.953125 
Q 31.453125 5.953125 34.59375 8.484375 
Q 37.75 11.03125 38.484375 16.3125 
L 47.359375 15.71875 
Q 46.921875 12.453125 45.453125 9.421875 
Q 44 6.390625 41.484375 4.09375 
Q 38.96875 1.8125 35.34375 0.40625 
Q 31.734375 -0.984375 27 -0.984375 
Q 20.796875 -0.984375 16.453125 1.109375 
Q 12.109375 3.21875 9.390625 6.90625 
Q 6.6875 10.59375 5.46875 15.59375 
Q 4.25 20.609375 4.25 26.46875 
Q 4.25 31.78125 5.125 35.859375 
Q 6 39.9375 7.59375 42.984375 
Q 9.1875 46.046875 11.328125 48.125 
Q 13.484375 50.203125 15.984375 51.4375 
Q 18.5 52.6875 21.28125 53.25 
Q 24.078125 53.8125 26.90625 53.8125 
Q 31.34375 53.8125 34.8125 52.59375 
Q 38.28125 51.375 40.796875 49.25 
Q 43.3125 47.125 44.875 44.234375 
Q 46.4375 41.359375 47.078125 38.03125 
L 38.03125 37.359375 
Q 37.359375 41.75 34.5625 44.328125 
Q 31.78125 46.921875 26.65625 46.921875 
Q 22.90625 46.921875 20.390625 45.671875 
Q 17.875 44.4375 16.3125 41.921875 
Q 14.75 39.40625 14.078125 35.59375 
Q 13.421875 31.78125 13.421875 26.65625 
" id="LiberationSans-63"/>
       <path id="LiberationSans-20"/>
      </defs>
      <g style="fill:#555555;" transform="translate(392.899219 644.246875)scale(0.1 -0.1)">
       <use xlink:href="#LiberationSans-70"/>
       <use x="55.615234" xlink:href="#LiberationSans-61"/>
       <use x="111.230469" xlink:href="#LiberationSans-72"/>
       <use x="144.53125" xlink:href="#LiberationSans-61"/>
       <use x="200.146484" xlink:href="#LiberationSans-6d"/>
       <use x="283.447266" xlink:href="#LiberationSans-65"/>
       <use x="339.0625" xlink:href="#LiberationSans-74"/>
       <use x="366.845703" xlink:href="#LiberationSans-72"/>
       <use x="400.146484" xlink:href="#LiberationSans-69"/>
       <use x="422.363281" xlink:href="#LiberationSans-63"/>
       <use x="472.363281" xlink:href="#LiberationSans-20"/>
       <use x="500.146484" xlink:href="#LiberationSans-62"/>
       <use x="555.761719" xlink:href="#LiberationSans-6f"/>
       <use x="611.376953" xlink:href="#LiberationSans-6f"/>
       <use x="666.992188" xlink:href="#LiberationSans-74"/>
       <use x="694.775391" xlink:href="#LiberationSans-73"/>
       <use x="744.775391" xlink:href="#LiberationSans-74"/>
       <use x="772.558594" xlink:href="#LiberationSans-72"/>
       <use x="805.859375" xlink:href="#LiberationSans-61"/>
       <use x="861.474609" xlink:href="#LiberationSans-70"/>
      </g>
     </g>
    </g>
    <g id="xtick_4">
     <g id="line2d_4"/>
     <g id="text_4">
      <!-- delta -->
      <defs>
       <path d="M 40.09375 8.5 
Q 37.640625 3.421875 33.609375 1.21875 
Q 29.59375 -0.984375 23.640625 -0.984375 
Q 13.625 -0.984375 8.90625 5.75 
Q 4.203125 12.5 4.203125 26.171875 
Q 4.203125 53.8125 23.640625 53.8125 
Q 29.640625 53.8125 33.640625 51.609375 
Q 37.640625 49.421875 40.09375 44.625 
L 40.1875 44.625 
Q 40.1875 45.125 40.15625 46.171875 
Q 40.140625 47.21875 40.109375 48.359375 
Q 40.09375 49.515625 40.09375 50.53125 
Q 40.09375 51.5625 40.09375 52 
L 40.09375 72.46875 
L 48.875 72.46875 
L 48.875 10.890625 
Q 48.875 8.984375 48.890625 7.21875 
Q 48.921875 5.46875 48.96875 4 
Q 49.03125 2.546875 49.078125 1.484375 
Q 49.125 0.4375 49.171875 0 
L 40.765625 0 
Q 40.671875 0.484375 40.59375 1.390625 
Q 40.53125 2.296875 40.453125 3.46875 
Q 40.375 4.640625 40.328125 5.9375 
Q 40.28125 7.234375 40.28125 8.5 
z
M 13.421875 26.46875 
Q 13.421875 21 14.109375 17.09375 
Q 14.796875 13.1875 16.3125 10.671875 
Q 17.828125 8.15625 20.171875 6.984375 
Q 22.515625 5.8125 25.875 5.8125 
Q 29.34375 5.8125 32 6.9375 
Q 34.671875 8.0625 36.453125 10.578125 
Q 38.234375 13.09375 39.15625 17.140625 
Q 40.09375 21.1875 40.09375 27.046875 
Q 40.09375 32.671875 39.15625 36.546875 
Q 38.234375 40.4375 36.421875 42.828125 
Q 34.625 45.21875 32 46.265625 
Q 29.390625 47.3125 25.984375 47.3125 
Q 22.75 47.3125 20.40625 46.1875 
Q 18.0625 45.0625 16.5 42.578125 
Q 14.9375 40.09375 14.171875 36.109375 
Q 13.421875 32.125 13.421875 26.46875 
" id="LiberationSans-64"/>
       <path d="M 6.734375 0 
L 6.734375 72.46875 
L 15.53125 72.46875 
L 15.53125 0 
z
" id="LiberationSans-6c"/>
      </defs>
      <g style="fill:#555555;" transform="translate(567.408594 644.246875)scale(0.1 -0.1)">
       <use xlink:href="#LiberationSans-64"/>
       <use x="55.615234" xlink:href="#LiberationSans-65"/>
       <use x="111.230469" xlink:href="#LiberationSans-6c"/>
       <use x="133.447266" xlink:href="#LiberationSans-74"/>
       <use x="161.230469" xlink:href="#LiberationSans-61"/>
      </g>
     </g>
    </g>
    <g id="text_5">
     <!-- Estimator -->
     <defs>
      <path d="M 8.203125 0 
L 8.203125 68.796875 
L 60.40625 68.796875 
L 60.40625 61.1875 
L 17.53125 61.1875 
L 17.53125 39.109375 
L 57.46875 39.109375 
L 57.46875 31.59375 
L 17.53125 31.59375 
L 17.53125 7.625 
L 62.40625 7.625 
L 62.40625 0 
z
" id="LiberationSans-45"/>
     </defs>
     <g style="fill:#555555;" transform="translate(343.662188 659.018125)scale(0.12 -0.12)">
      <use xlink:href="#LiberationSans-45"/>
      <use x="66.699219" xlink:href="#LiberationSans-73"/>
      <use x="116.699219" xlink:href="#LiberationSans-74"/>
      <use x="144.482422" xlink:href="#LiberationSans-69"/>
      <use x="166.699219" xlink:href="#LiberationSans-6d"/>
      <use x="250" xlink:href="#LiberationSans-61"/>
      <use x="305.615234" xlink:href="#LiberationSans-74"/>
      <use x="333.398438" xlink:href="#LiberationSans-6f"/>
      <use x="389.013672" xlink:href="#LiberationSans-72"/>
     </g>
    </g>
   </g>
   <g id="matplotlib.axis_2">
    <g id="ytick_1">
     <g id="line2d_5">
      <path clip-path="url(#p1948e66b9e)" d="M 90 577.147477 
L 648 577.147477 
" style="fill:none;stroke:#ffffff;stroke-linecap:round;"/>
     </g>
     <g id="line2d_6"/>
     <g id="text_6">
      <!-- 0 -->
      <defs>
       <path d="M 51.703125 34.421875 
Q 51.703125 24.515625 49.828125 17.75 
Q 47.953125 10.984375 44.703125 6.8125 
Q 41.453125 2.640625 37.0625 0.828125 
Q 32.671875 -0.984375 27.6875 -0.984375 
Q 22.65625 -0.984375 18.3125 0.828125 
Q 13.96875 2.640625 10.765625 6.78125 
Q 7.5625 10.9375 5.734375 17.703125 
Q 3.90625 24.46875 3.90625 34.421875 
Q 3.90625 44.828125 5.734375 51.640625 
Q 7.5625 58.453125 10.78125 62.5 
Q 14.015625 66.546875 18.40625 68.1875 
Q 22.796875 69.828125 27.984375 69.828125 
Q 32.90625 69.828125 37.21875 68.1875 
Q 41.546875 66.546875 44.765625 62.5 
Q 48 58.453125 49.84375 51.640625 
Q 51.703125 44.828125 51.703125 34.421875 
M 42.78125 34.421875 
Q 42.78125 42.625 41.796875 48.0625 
Q 40.828125 53.515625 38.921875 56.765625 
Q 37.015625 60.015625 34.25 61.359375 
Q 31.5 62.703125 27.984375 62.703125 
Q 24.265625 62.703125 21.4375 61.328125 
Q 18.609375 59.96875 16.671875 56.71875 
Q 14.75 53.46875 13.765625 48.015625 
Q 12.796875 42.578125 12.796875 34.421875 
Q 12.796875 26.515625 13.796875 21.09375 
Q 14.796875 15.671875 16.71875 12.375 
Q 18.65625 9.078125 21.4375 7.640625 
Q 24.21875 6.203125 27.78125 6.203125 
Q 31.25 6.203125 34.03125 7.640625 
Q 36.8125 9.078125 38.734375 12.375 
Q 40.671875 15.671875 41.71875 21.09375 
Q 42.78125 26.515625 42.78125 34.421875 
" id="LiberationSans-30"/>
      </defs>
      <g style="fill:#555555;" transform="translate(77.439063 580.770915)scale(0.1 -0.1)">
       <use xlink:href="#LiberationSans-30"/>
      </g>
     </g>
    </g>
    <g id="ytick_2">
     <g id="line2d_7">
      <path clip-path="url(#p1948e66b9e)" d="M 90 490.62127 
L 648 490.62127 
" style="fill:none;stroke:#ffffff;stroke-linecap:round;"/>
     </g>
     <g id="line2d_8"/>
     <g id="text_7">
      <!-- 1000 -->
      <defs>
       <path d="M 7.625 0 
L 7.625 7.46875 
L 25.140625 7.46875 
L 25.140625 60.40625 
L 9.625 49.3125 
L 9.625 57.625 
L 25.875 68.796875 
L 33.984375 68.796875 
L 33.984375 7.46875 
L 50.734375 7.46875 
L 50.734375 0 
z
" id="LiberationSans-31"/>
      </defs>
      <g style="fill:#555555;" transform="translate(60.75625 494.244708)scale(0.1 -0.1)">
       <use xlink:href="#LiberationSans-31"/>
       <use x="55.615234" xlink:href="#LiberationSans-30"/>
       <use x="111.230469" xlink:href="#LiberationSans-30"/>
       <use x="166.845703" xlink:href="#LiberationSans-30"/>
      </g>
     </g>
    </g>
    <g id="ytick_3">
     <g id="line2d_9">
      <path clip-path="url(#p1948e66b9e)" d="M 90 404.095063 
L 648 404.095063 
" style="fill:none;stroke:#ffffff;stroke-linecap:round;"/>
     </g>
     <g id="line2d_10"/>
     <g id="text_8">
      <!-- 2000 -->
      <defs>
       <path d="M 5.03125 0 
L 5.03125 6.203125 
Q 7.515625 11.921875 11.109375 16.28125 
Q 14.703125 20.65625 18.65625 24.1875 
Q 22.609375 27.734375 26.484375 30.765625 
Q 30.375 33.796875 33.5 36.8125 
Q 36.625 39.84375 38.546875 43.15625 
Q 40.484375 46.484375 40.484375 50.6875 
Q 40.484375 53.609375 39.59375 55.828125 
Q 38.71875 58.0625 37.0625 59.5625 
Q 35.40625 61.078125 33.078125 61.828125 
Q 30.765625 62.59375 27.9375 62.59375 
Q 25.296875 62.59375 22.96875 61.859375 
Q 20.65625 61.140625 18.84375 59.671875 
Q 17.046875 58.203125 15.890625 56.03125 
Q 14.75 53.859375 14.40625 50.984375 
L 5.421875 51.8125 
Q 5.859375 55.515625 7.46875 58.78125 
Q 9.078125 62.0625 11.90625 64.53125 
Q 14.75 67 18.71875 68.40625 
Q 22.703125 69.828125 27.9375 69.828125 
Q 33.0625 69.828125 37.0625 68.609375 
Q 41.0625 67.390625 43.8125 64.984375 
Q 46.578125 62.59375 48.046875 59.078125 
Q 49.515625 55.5625 49.515625 50.984375 
Q 49.515625 47.515625 48.265625 44.390625 
Q 47.015625 41.265625 44.9375 38.421875 
Q 42.875 35.59375 40.140625 32.953125 
Q 37.40625 30.328125 34.421875 27.8125 
Q 31.453125 25.296875 28.421875 22.828125 
Q 25.390625 20.359375 22.71875 17.859375 
Q 20.0625 15.375 17.96875 12.8125 
Q 15.875 10.25 14.703125 7.46875 
L 50.59375 7.46875 
L 50.59375 0 
z
" id="LiberationSans-32"/>
      </defs>
      <g style="fill:#555555;" transform="translate(60.75625 407.7185)scale(0.1 -0.1)">
       <use xlink:href="#LiberationSans-32"/>
       <use x="55.615234" xlink:href="#LiberationSans-30"/>
       <use x="111.230469" xlink:href="#LiberationSans-30"/>
       <use x="166.845703" xlink:href="#LiberationSans-30"/>
      </g>
     </g>
    </g>
    <g id="ytick_4">
     <g id="line2d_11">
      <path clip-path="url(#p1948e66b9e)" d="M 90 317.568856 
L 648 317.568856 
" style="fill:none;stroke:#ffffff;stroke-linecap:round;"/>
     </g>
     <g id="line2d_12"/>
     <g id="text_9">
      <!-- 3000 -->
      <defs>
       <path d="M 51.21875 19 
Q 51.21875 14.265625 49.671875 10.546875 
Q 48.140625 6.84375 45.1875 4.265625 
Q 42.234375 1.703125 37.859375 0.359375 
Q 33.5 -0.984375 27.875 -0.984375 
Q 21.484375 -0.984375 17.109375 0.609375 
Q 12.75 2.203125 9.90625 4.8125 
Q 7.078125 7.421875 5.65625 10.765625 
Q 4.25 14.109375 3.8125 17.671875 
L 12.890625 18.5 
Q 13.28125 15.765625 14.328125 13.515625 
Q 15.375 11.28125 17.1875 9.671875 
Q 19 8.0625 21.625 7.171875 
Q 24.265625 6.296875 27.875 6.296875 
Q 34.515625 6.296875 38.296875 9.5625 
Q 42.09375 12.84375 42.09375 19.28125 
Q 42.09375 23.09375 40.40625 25.40625 
Q 38.71875 27.734375 36.203125 29.03125 
Q 33.6875 30.328125 30.734375 30.765625 
Q 27.78125 31.203125 25.296875 31.203125 
L 20.3125 31.203125 
L 20.3125 38.8125 
L 25.09375 38.8125 
Q 27.59375 38.8125 30.265625 39.328125 
Q 32.953125 39.84375 35.171875 41.1875 
Q 37.40625 42.53125 38.84375 44.828125 
Q 40.28125 47.125 40.28125 50.6875 
Q 40.28125 56.203125 37.03125 59.390625 
Q 33.796875 62.59375 27.390625 62.59375 
Q 21.578125 62.59375 17.984375 59.609375 
Q 14.40625 56.640625 13.8125 51.21875 
L 4.984375 51.90625 
Q 5.515625 56.453125 7.46875 59.8125 
Q 9.421875 63.1875 12.421875 65.40625 
Q 15.4375 67.625 19.28125 68.71875 
Q 23.140625 69.828125 27.484375 69.828125 
Q 33.25 69.828125 37.390625 68.375 
Q 41.546875 66.9375 44.1875 64.46875 
Q 46.828125 62.015625 48.0625 58.6875 
Q 49.3125 55.375 49.3125 51.609375 
Q 49.3125 48.578125 48.484375 45.9375 
Q 47.65625 43.3125 45.890625 41.203125 
Q 44.140625 39.109375 41.421875 37.59375 
Q 38.71875 36.078125 34.90625 35.296875 
L 34.90625 35.109375 
Q 39.0625 34.671875 42.140625 33.21875 
Q 45.21875 31.78125 47.21875 29.625 
Q 49.21875 27.484375 50.21875 24.75 
Q 51.21875 22.015625 51.21875 19 
" id="LiberationSans-33"/>
      </defs>
      <g style="fill:#555555;" transform="translate(60.75625 321.192293)scale(0.1 -0.1)">
       <use xlink:href="#LiberationSans-33"/>
       <use x="55.615234" xlink:href="#LiberationSans-30"/>
       <use x="111.230469" xlink:href="#LiberationSans-30"/>
       <use x="166.845703" xlink:href="#LiberationSans-30"/>
      </g>
     </g>
    </g>
    <g id="ytick_5">
     <g id="line2d_13">
      <path clip-path="url(#p1948e66b9e)" d="M 90 231.042649 
L 648 231.042649 
" style="fill:none;stroke:#ffffff;stroke-linecap:round;"/>
     </g>
     <g id="line2d_14"/>
     <g id="text_10">
      <!-- 4000 -->
      <defs>
       <path d="M 43.015625 15.578125 
L 43.015625 0 
L 34.71875 0 
L 34.71875 15.578125 
L 2.296875 15.578125 
L 2.296875 22.40625 
L 33.796875 68.796875 
L 43.015625 68.796875 
L 43.015625 22.515625 
L 52.6875 22.515625 
L 52.6875 15.578125 
z
M 34.71875 58.890625 
Q 34.625 58.640625 34.234375 57.9375 
Q 33.84375 57.234375 33.34375 56.34375 
Q 32.859375 55.46875 32.34375 54.5625 
Q 31.84375 53.65625 31.453125 53.078125 
L 13.8125 27.09375 
Q 13.578125 26.703125 13.109375 26.0625 
Q 12.640625 25.4375 12.15625 24.78125 
Q 11.671875 24.125 11.171875 23.484375 
Q 10.6875 22.859375 10.40625 22.515625 
L 34.71875 22.515625 
z
" id="LiberationSans-34"/>
      </defs>
      <g style="fill:#555555;" transform="translate(60.75625 234.666086)scale(0.1 -0.1)">
       <use xlink:href="#LiberationSans-34"/>
       <use x="55.615234" xlink:href="#LiberationSans-30"/>
       <use x="111.230469" xlink:href="#LiberationSans-30"/>
       <use x="166.845703" xlink:href="#LiberationSans-30"/>
      </g>
     </g>
    </g>
    <g id="ytick_6">
     <g id="line2d_15">
      <path clip-path="url(#p1948e66b9e)" d="M 90 144.516441 
L 648 144.516441 
" style="fill:none;stroke:#ffffff;stroke-linecap:round;"/>
     </g>
     <g id="line2d_16"/>
     <g id="text_11">
      <!-- 5000 -->
      <defs>
       <path d="M 51.421875 22.40625 
Q 51.421875 17.234375 49.859375 12.9375 
Q 48.296875 8.640625 45.21875 5.53125 
Q 42.140625 2.4375 37.578125 0.71875 
Q 33.015625 -0.984375 27 -0.984375 
Q 21.578125 -0.984375 17.546875 0.28125 
Q 13.53125 1.5625 10.734375 3.78125 
Q 7.953125 6 6.3125 8.984375 
Q 4.6875 11.96875 4 15.375 
L 12.890625 16.40625 
Q 13.421875 14.453125 14.390625 12.625 
Q 15.375 10.796875 17.0625 9.34375 
Q 18.75 7.90625 21.21875 7.046875 
Q 23.6875 6.203125 27.203125 6.203125 
Q 30.609375 6.203125 33.390625 7.25 
Q 36.1875 8.296875 38.15625 10.34375 
Q 40.140625 12.40625 41.203125 15.375 
Q 42.28125 18.359375 42.28125 22.21875 
Q 42.28125 25.390625 41.25 28.046875 
Q 40.234375 30.71875 38.328125 32.640625 
Q 36.421875 34.578125 33.65625 35.640625 
Q 30.90625 36.71875 27.390625 36.71875 
Q 25.203125 36.71875 23.34375 36.328125 
Q 21.484375 35.9375 19.890625 35.25 
Q 18.3125 34.578125 17.015625 33.671875 
Q 15.71875 32.765625 14.59375 31.78125 
L 6 31.78125 
L 8.296875 68.796875 
L 47.40625 68.796875 
L 47.40625 61.328125 
L 16.3125 61.328125 
L 14.984375 39.5 
Q 17.328125 41.3125 20.84375 42.59375 
Q 24.359375 43.890625 29.203125 43.890625 
Q 34.328125 43.890625 38.421875 42.328125 
Q 42.53125 40.765625 45.40625 37.90625 
Q 48.296875 35.0625 49.859375 31.109375 
Q 51.421875 27.15625 51.421875 22.40625 
" id="LiberationSans-35"/>
      </defs>
      <g style="fill:#555555;" transform="translate(60.75625 148.139879)scale(0.1 -0.1)">
       <use xlink:href="#LiberationSans-35"/>
       <use x="55.615234" xlink:href="#LiberationSans-30"/>
       <use x="111.230469" xlink:href="#LiberationSans-30"/>
       <use x="166.845703" xlink:href="#LiberationSans-30"/>
      </g>
     </g>
    </g>
    <g id="text_12">
     <!-- Value -->
     <defs>
      <path d="M 38.1875 0 
L 28.515625 0 
L 0.4375 68.796875 
L 10.25 68.796875 
L 29.296875 20.359375 
Q 30.03125 18.171875 30.765625 15.984375 
Q 31.5 13.8125 32.078125 12.109375 
Q 32.765625 10.109375 33.40625 8.203125 
Q 33.984375 10.015625 34.671875 12.015625 
Q 35.25 13.71875 35.953125 15.859375 
Q 36.671875 18.015625 37.5 20.359375 
L 56.453125 68.796875 
L 66.265625 68.796875 
z
" id="LiberationSans-56"/>
     </defs>
     <g style="fill:#555555;" transform="translate(54.26625 373.538437)rotate(-90)scale(0.12 -0.12)">
      <use xlink:href="#LiberationSans-56"/>
      <use x="66.589844" xlink:href="#LiberationSans-61"/>
      <use x="122.205078" xlink:href="#LiberationSans-6c"/>
      <use x="144.421875" xlink:href="#LiberationSans-75"/>
      <use x="200.037109" xlink:href="#LiberationSans-65"/>
     </g>
    </g>
   </g>
   <g id="patch_3">
    <path clip-path="url(#p1948e66b9e)" d="M 103.95 570.594933 
L 215.55 570.594933 
L 215.55 550.936807 
L 103.95 550.936807 
L 103.95 570.594933 
z
" style="fill:#cc5a49;stroke:#474747;stroke-linejoin:miter;stroke-width:1.75;"/>
   </g>
   <g id="patch_4">
    <path clip-path="url(#p1948e66b9e)" d="M 243.45 565.609707 
L 355.05 565.609707 
L 355.05 563.917619 
L 243.45 563.917619 
L 243.45 565.609707 
z
" style="fill:#4586ac;stroke:#474747;stroke-linejoin:miter;stroke-width:1.75;"/>
   </g>
   <g id="patch_5">
    <path clip-path="url(#p1948e66b9e)" d="M 382.95 565.612792 
L 494.55 565.612792 
L 494.55 563.933444 
L 382.95 563.933444 
L 382.95 565.612792 
z
" style="fill:#9e97cc;stroke:#474747;stroke-linejoin:miter;stroke-width:1.75;"/>
   </g>
   <g id="patch_6">
    <path clip-path="url(#p1948e66b9e)" d="M 522.45 574.88555 
L 634.05 574.88555 
L 634.05 551.399522 
L 522.45 551.399522 
L 522.45 574.88555 
z
" style="fill:#777777;stroke:#474747;stroke-linejoin:miter;stroke-width:1.75;"/>
   </g>
   <g id="line2d_17">
    <path clip-path="url(#p1948e66b9e)" d="M 159.75 570.594933 
L 159.75 576.582542 
" style="fill:none;stroke:#474747;stroke-linecap:round;stroke-width:1.75;"/>
   </g>
   <g id="line2d_18">
    <path clip-path="url(#p1948e66b9e)" d="M 159.75 550.936807 
L 159.75 522.577236 
" style="fill:none;stroke:#474747;stroke-linecap:round;stroke-width:1.75;"/>
   </g>
   <g id="line2d_19">
    <path clip-path="url(#p1948e66b9e)" d="M 131.85 576.582542 
L 187.65 576.582542 
" style="fill:none;stroke:#474747;stroke-linecap:round;stroke-width:1.75;"/>
   </g>
   <g id="line2d_20">
    <path clip-path="url(#p1948e66b9e)" d="M 131.85 522.577236 
L 187.65 522.577236 
" style="fill:none;stroke:#474747;stroke-linecap:round;stroke-width:1.75;"/>
   </g>
   <g id="line2d_21">
    <defs>
     <path d="M -0 3.535534 
L 2.12132 0 
L -0 -3.535534 
L -2.12132 -0 
z
" id="m5d65452520"/>
    </defs>
    <g clip-path="url(#p1948e66b9e)">
     <use style="fill:#474747;" x="159.75" xlink:href="#m5d65452520" y="480.827541"/>
     <use style="fill:#474747;" x="159.75" xlink:href="#m5d65452520" y="514.396525"/>
     <use style="fill:#474747;" x="159.75" xlink:href="#m5d65452520" y="518.946167"/>
     <use style="fill:#474747;" x="159.75" xlink:href="#m5d65452520" y="508.36838"/>
     <use style="fill:#474747;" x="159.75" xlink:href="#m5d65452520" y="486.696739"/>
     <use style="fill:#474747;" x="159.75" xlink:href="#m5d65452520" y="479.225367"/>
     <use style="fill:#474747;" x="159.75" xlink:href="#m5d65452520" y="520.227503"/>
     <use style="fill:#474747;" x="159.75" xlink:href="#m5d65452520" y="388.183059"/>
     <use style="fill:#474747;" x="159.75" xlink:href="#m5d65452520" y="403.535617"/>
     <use style="fill:#474747;" x="159.75" xlink:href="#m5d65452520" y="489.821953"/>
     <use style="fill:#474747;" x="159.75" xlink:href="#m5d65452520" y="500.477384"/>
     <use style="fill:#474747;" x="159.75" xlink:href="#m5d65452520" y="520.639558"/>
     <use style="fill:#474747;" x="159.75" xlink:href="#m5d65452520" y="498.028175"/>
     <use style="fill:#474747;" x="159.75" xlink:href="#m5d65452520" y="508.08372"/>
     <use style="fill:#474747;" x="159.75" xlink:href="#m5d65452520" y="521.056634"/>
     <use style="fill:#474747;" x="159.75" xlink:href="#m5d65452520" y="432.358294"/>
     <use style="fill:#474747;" x="159.75" xlink:href="#m5d65452520" y="510.204486"/>
     <use style="fill:#474747;" x="159.75" xlink:href="#m5d65452520" y="488.182896"/>
     <use style="fill:#474747;" x="159.75" xlink:href="#m5d65452520" y="111.109091"/>
     <use style="fill:#474747;" x="159.75" xlink:href="#m5d65452520" y="512.129682"/>
     <use style="fill:#474747;" x="159.75" xlink:href="#m5d65452520" y="385.981995"/>
     <use style="fill:#474747;" x="159.75" xlink:href="#m5d65452520" y="519.441729"/>
     <use style="fill:#474747;" x="159.75" xlink:href="#m5d65452520" y="513.520627"/>
     <use style="fill:#474747;" x="159.75" xlink:href="#m5d65452520" y="467.365452"/>
     <use style="fill:#474747;" x="159.75" xlink:href="#m5d65452520" y="483.067725"/>
     <use style="fill:#474747;" x="159.75" xlink:href="#m5d65452520" y="491.959556"/>
     <use style="fill:#474747;" x="159.75" xlink:href="#m5d65452520" y="515.428271"/>
     <use style="fill:#474747;" x="159.75" xlink:href="#m5d65452520" y="520.921684"/>
     <use style="fill:#474747;" x="159.75" xlink:href="#m5d65452520" y="516.400647"/>
     <use style="fill:#474747;" x="159.75" xlink:href="#m5d65452520" y="442.398265"/>
     <use style="fill:#474747;" x="159.75" xlink:href="#m5d65452520" y="495.193593"/>
     <use style="fill:#474747;" x="159.75" xlink:href="#m5d65452520" y="520.6284"/>
     <use style="fill:#474747;" x="159.75" xlink:href="#m5d65452520" y="520.399656"/>
     <use style="fill:#474747;" x="159.75" xlink:href="#m5d65452520" y="516.94861"/>
     <use style="fill:#474747;" x="159.75" xlink:href="#m5d65452520" y="509.441705"/>
     <use style="fill:#474747;" x="159.75" xlink:href="#m5d65452520" y="511.607368"/>
     <use style="fill:#474747;" x="159.75" xlink:href="#m5d65452520" y="516.808726"/>
     <use style="fill:#474747;" x="159.75" xlink:href="#m5d65452520" y="484.46899"/>
     <use style="fill:#474747;" x="159.75" xlink:href="#m5d65452520" y="500.98028"/>
     <use style="fill:#474747;" x="159.75" xlink:href="#m5d65452520" y="518.510339"/>
     <use style="fill:#474747;" x="159.75" xlink:href="#m5d65452520" y="442.98721"/>
     <use style="fill:#474747;" x="159.75" xlink:href="#m5d65452520" y="518.651259"/>
     <use style="fill:#474747;" x="159.75" xlink:href="#m5d65452520" y="497.44801"/>
     <use style="fill:#474747;" x="159.75" xlink:href="#m5d65452520" y="478.423098"/>
     <use style="fill:#474747;" x="159.75" xlink:href="#m5d65452520" y="465.359966"/>
     <use style="fill:#474747;" x="159.75" xlink:href="#m5d65452520" y="433.408129"/>
     <use style="fill:#474747;" x="159.75" xlink:href="#m5d65452520" y="498.41874"/>
     <use style="fill:#474747;" x="159.75" xlink:href="#m5d65452520" y="455.39548"/>
     <use style="fill:#474747;" x="159.75" xlink:href="#m5d65452520" y="443.756468"/>
     <use style="fill:#474747;" x="159.75" xlink:href="#m5d65452520" y="517.171663"/>
     <use style="fill:#474747;" x="159.75" xlink:href="#m5d65452520" y="465.872366"/>
     <use style="fill:#474747;" x="159.75" xlink:href="#m5d65452520" y="504.201565"/>
     <use style="fill:#474747;" x="159.75" xlink:href="#m5d65452520" y="472.374005"/>
     <use style="fill:#474747;" x="159.75" xlink:href="#m5d65452520" y="495.857117"/>
     <use style="fill:#474747;" x="159.75" xlink:href="#m5d65452520" y="478.697862"/>
     <use style="fill:#474747;" x="159.75" xlink:href="#m5d65452520" y="470.938166"/>
     <use style="fill:#474747;" x="159.75" xlink:href="#m5d65452520" y="471.639583"/>
     <use style="fill:#474747;" x="159.75" xlink:href="#m5d65452520" y="510.420274"/>
     <use style="fill:#474747;" x="159.75" xlink:href="#m5d65452520" y="505.651469"/>
     <use style="fill:#474747;" x="159.75" xlink:href="#m5d65452520" y="519.57356"/>
     <use style="fill:#474747;" x="159.75" xlink:href="#m5d65452520" y="483.083321"/>
     <use style="fill:#474747;" x="159.75" xlink:href="#m5d65452520" y="483.694656"/>
     <use style="fill:#474747;" x="159.75" xlink:href="#m5d65452520" y="518.586004"/>
     <use style="fill:#474747;" x="159.75" xlink:href="#m5d65452520" y="143.225645"/>
     <use style="fill:#474747;" x="159.75" xlink:href="#m5d65452520" y="516.935837"/>
     <use style="fill:#474747;" x="159.75" xlink:href="#m5d65452520" y="496.968003"/>
     <use style="fill:#474747;" x="159.75" xlink:href="#m5d65452520" y="462.82136"/>
     <use style="fill:#474747;" x="159.75" xlink:href="#m5d65452520" y="517.931058"/>
     <use style="fill:#474747;" x="159.75" xlink:href="#m5d65452520" y="373.736889"/>
    </g>
   </g>
   <g id="line2d_22">
    <path clip-path="url(#p1948e66b9e)" d="M 299.25 565.609707 
L 299.25 568.061177 
" style="fill:none;stroke:#474747;stroke-linecap:round;stroke-width:1.75;"/>
   </g>
   <g id="line2d_23">
    <path clip-path="url(#p1948e66b9e)" d="M 299.25 563.917619 
L 299.25 561.384931 
" style="fill:none;stroke:#474747;stroke-linecap:round;stroke-width:1.75;"/>
   </g>
   <g id="line2d_24">
    <path clip-path="url(#p1948e66b9e)" d="M 271.35 568.061177 
L 327.15 568.061177 
" style="fill:none;stroke:#474747;stroke-linecap:round;stroke-width:1.75;"/>
   </g>
   <g id="line2d_25">
    <path clip-path="url(#p1948e66b9e)" d="M 271.35 561.384931 
L 327.15 561.384931 
" style="fill:none;stroke:#474747;stroke-linecap:round;stroke-width:1.75;"/>
   </g>
   <g id="line2d_26">
    <g clip-path="url(#p1948e66b9e)">
     <use style="fill:#474747;" x="299.25" xlink:href="#m5d65452520" y="568.300892"/>
     <use style="fill:#474747;" x="299.25" xlink:href="#m5d65452520" y="568.810767"/>
     <use style="fill:#474747;" x="299.25" xlink:href="#m5d65452520" y="568.431626"/>
     <use style="fill:#474747;" x="299.25" xlink:href="#m5d65452520" y="568.232934"/>
     <use style="fill:#474747;" x="299.25" xlink:href="#m5d65452520" y="568.309171"/>
     <use style="fill:#474747;" x="299.25" xlink:href="#m5d65452520" y="568.356265"/>
     <use style="fill:#474747;" x="299.25" xlink:href="#m5d65452520" y="568.640449"/>
     <use style="fill:#474747;" x="299.25" xlink:href="#m5d65452520" y="568.29612"/>
     <use style="fill:#474747;" x="299.25" xlink:href="#m5d65452520" y="568.279676"/>
     <use style="fill:#474747;" x="299.25" xlink:href="#m5d65452520" y="568.292525"/>
     <use style="fill:#474747;" x="299.25" xlink:href="#m5d65452520" y="561.229891"/>
     <use style="fill:#474747;" x="299.25" xlink:href="#m5d65452520" y="560.684261"/>
     <use style="fill:#474747;" x="299.25" xlink:href="#m5d65452520" y="561.182757"/>
     <use style="fill:#474747;" x="299.25" xlink:href="#m5d65452520" y="561.092111"/>
     <use style="fill:#474747;" x="299.25" xlink:href="#m5d65452520" y="560.406116"/>
     <use style="fill:#474747;" x="299.25" xlink:href="#m5d65452520" y="560.639848"/>
     <use style="fill:#474747;" x="299.25" xlink:href="#m5d65452520" y="560.490749"/>
     <use style="fill:#474747;" x="299.25" xlink:href="#m5d65452520" y="560.168168"/>
     <use style="fill:#474747;" x="299.25" xlink:href="#m5d65452520" y="561.099679"/>
     <use style="fill:#474747;" x="299.25" xlink:href="#m5d65452520" y="560.947318"/>
     <use style="fill:#474747;" x="299.25" xlink:href="#m5d65452520" y="561.135107"/>
     <use style="fill:#474747;" x="299.25" xlink:href="#m5d65452520" y="561.258493"/>
     <use style="fill:#474747;" x="299.25" xlink:href="#m5d65452520" y="560.691096"/>
     <use style="fill:#474747;" x="299.25" xlink:href="#m5d65452520" y="560.874544"/>
     <use style="fill:#474747;" x="299.25" xlink:href="#m5d65452520" y="561.189547"/>
     <use style="fill:#474747;" x="299.25" xlink:href="#m5d65452520" y="560.862481"/>
     <use style="fill:#474747;" x="299.25" xlink:href="#m5d65452520" y="561.290677"/>
     <use style="fill:#474747;" x="299.25" xlink:href="#m5d65452520" y="560.089201"/>
     <use style="fill:#474747;" x="299.25" xlink:href="#m5d65452520" y="561.269278"/>
     <use style="fill:#474747;" x="299.25" xlink:href="#m5d65452520" y="561.226965"/>
     <use style="fill:#474747;" x="299.25" xlink:href="#m5d65452520" y="561.250085"/>
     <use style="fill:#474747;" x="299.25" xlink:href="#m5d65452520" y="561.226607"/>
     <use style="fill:#474747;" x="299.25" xlink:href="#m5d65452520" y="561.354715"/>
     <use style="fill:#474747;" x="299.25" xlink:href="#m5d65452520" y="561.206115"/>
     <use style="fill:#474747;" x="299.25" xlink:href="#m5d65452520" y="560.974834"/>
     <use style="fill:#474747;" x="299.25" xlink:href="#m5d65452520" y="561.093958"/>
     <use style="fill:#474747;" x="299.25" xlink:href="#m5d65452520" y="560.920986"/>
     <use style="fill:#474747;" x="299.25" xlink:href="#m5d65452520" y="561.31229"/>
     <use style="fill:#474747;" x="299.25" xlink:href="#m5d65452520" y="561.359173"/>
     <use style="fill:#474747;" x="299.25" xlink:href="#m5d65452520" y="559.562319"/>
     <use style="fill:#474747;" x="299.25" xlink:href="#m5d65452520" y="560.873637"/>
     <use style="fill:#474747;" x="299.25" xlink:href="#m5d65452520" y="561.113685"/>
     <use style="fill:#474747;" x="299.25" xlink:href="#m5d65452520" y="560.911253"/>
     <use style="fill:#474747;" x="299.25" xlink:href="#m5d65452520" y="561.326168"/>
     <use style="fill:#474747;" x="299.25" xlink:href="#m5d65452520" y="561.280441"/>
     <use style="fill:#474747;" x="299.25" xlink:href="#m5d65452520" y="561.092101"/>
     <use style="fill:#474747;" x="299.25" xlink:href="#m5d65452520" y="559.82387"/>
     <use style="fill:#474747;" x="299.25" xlink:href="#m5d65452520" y="560.932047"/>
     <use style="fill:#474747;" x="299.25" xlink:href="#m5d65452520" y="560.06235"/>
     <use style="fill:#474747;" x="299.25" xlink:href="#m5d65452520" y="561.342895"/>
     <use style="fill:#474747;" x="299.25" xlink:href="#m5d65452520" y="560.402413"/>
     <use style="fill:#474747;" x="299.25" xlink:href="#m5d65452520" y="561.124825"/>
     <use style="fill:#474747;" x="299.25" xlink:href="#m5d65452520" y="560.239429"/>
     <use style="fill:#474747;" x="299.25" xlink:href="#m5d65452520" y="561.099746"/>
     <use style="fill:#474747;" x="299.25" xlink:href="#m5d65452520" y="561.106836"/>
     <use style="fill:#474747;" x="299.25" xlink:href="#m5d65452520" y="560.112478"/>
     <use style="fill:#474747;" x="299.25" xlink:href="#m5d65452520" y="560.425932"/>
     <use style="fill:#474747;" x="299.25" xlink:href="#m5d65452520" y="560.016617"/>
     <use style="fill:#474747;" x="299.25" xlink:href="#m5d65452520" y="560.949284"/>
     <use style="fill:#474747;" x="299.25" xlink:href="#m5d65452520" y="561.271859"/>
     <use style="fill:#474747;" x="299.25" xlink:href="#m5d65452520" y="561.241097"/>
     <use style="fill:#474747;" x="299.25" xlink:href="#m5d65452520" y="561.334671"/>
     <use style="fill:#474747;" x="299.25" xlink:href="#m5d65452520" y="560.009792"/>
     <use style="fill:#474747;" x="299.25" xlink:href="#m5d65452520" y="561.199839"/>
     <use style="fill:#474747;" x="299.25" xlink:href="#m5d65452520" y="561.209789"/>
     <use style="fill:#474747;" x="299.25" xlink:href="#m5d65452520" y="561.339643"/>
     <use style="fill:#474747;" x="299.25" xlink:href="#m5d65452520" y="561.364683"/>
     <use style="fill:#474747;" x="299.25" xlink:href="#m5d65452520" y="560.015724"/>
     <use style="fill:#474747;" x="299.25" xlink:href="#m5d65452520" y="561.190074"/>
     <use style="fill:#474747;" x="299.25" xlink:href="#m5d65452520" y="561.174615"/>
     <use style="fill:#474747;" x="299.25" xlink:href="#m5d65452520" y="561.294436"/>
     <use style="fill:#474747;" x="299.25" xlink:href="#m5d65452520" y="561.223627"/>
     <use style="fill:#474747;" x="299.25" xlink:href="#m5d65452520" y="560.599465"/>
     <use style="fill:#474747;" x="299.25" xlink:href="#m5d65452520" y="561.310004"/>
     <use style="fill:#474747;" x="299.25" xlink:href="#m5d65452520" y="560.876562"/>
     <use style="fill:#474747;" x="299.25" xlink:href="#m5d65452520" y="561.24294"/>
     <use style="fill:#474747;" x="299.25" xlink:href="#m5d65452520" y="561.176814"/>
     <use style="fill:#474747;" x="299.25" xlink:href="#m5d65452520" y="561.156477"/>
     <use style="fill:#474747;" x="299.25" xlink:href="#m5d65452520" y="560.514657"/>
     <use style="fill:#474747;" x="299.25" xlink:href="#m5d65452520" y="561.143431"/>
     <use style="fill:#474747;" x="299.25" xlink:href="#m5d65452520" y="560.798954"/>
     <use style="fill:#474747;" x="299.25" xlink:href="#m5d65452520" y="560.695351"/>
     <use style="fill:#474747;" x="299.25" xlink:href="#m5d65452520" y="561.232986"/>
     <use style="fill:#474747;" x="299.25" xlink:href="#m5d65452520" y="561.326609"/>
     <use style="fill:#474747;" x="299.25" xlink:href="#m5d65452520" y="560.763195"/>
     <use style="fill:#474747;" x="299.25" xlink:href="#m5d65452520" y="560.91942"/>
     <use style="fill:#474747;" x="299.25" xlink:href="#m5d65452520" y="560.405094"/>
     <use style="fill:#474747;" x="299.25" xlink:href="#m5d65452520" y="560.324487"/>
     <use style="fill:#474747;" x="299.25" xlink:href="#m5d65452520" y="561.067523"/>
     <use style="fill:#474747;" x="299.25" xlink:href="#m5d65452520" y="561.047581"/>
     <use style="fill:#474747;" x="299.25" xlink:href="#m5d65452520" y="560.926711"/>
     <use style="fill:#474747;" x="299.25" xlink:href="#m5d65452520" y="561.344159"/>
     <use style="fill:#474747;" x="299.25" xlink:href="#m5d65452520" y="561.293534"/>
     <use style="fill:#474747;" x="299.25" xlink:href="#m5d65452520" y="561.079916"/>
     <use style="fill:#474747;" x="299.25" xlink:href="#m5d65452520" y="559.487231"/>
     <use style="fill:#474747;" x="299.25" xlink:href="#m5d65452520" y="561.363076"/>
     <use style="fill:#474747;" x="299.25" xlink:href="#m5d65452520" y="560.694912"/>
     <use style="fill:#474747;" x="299.25" xlink:href="#m5d65452520" y="559.076205"/>
     <use style="fill:#474747;" x="299.25" xlink:href="#m5d65452520" y="561.37741"/>
    </g>
   </g>
   <g id="line2d_27">
    <path clip-path="url(#p1948e66b9e)" d="M 438.75 565.612792 
L 438.75 568.091158 
" style="fill:none;stroke:#474747;stroke-linecap:round;stroke-width:1.75;"/>
   </g>
   <g id="line2d_28">
    <path clip-path="url(#p1948e66b9e)" d="M 438.75 563.933444 
L 438.75 561.414848 
" style="fill:none;stroke:#474747;stroke-linecap:round;stroke-width:1.75;"/>
   </g>
   <g id="line2d_29">
    <path clip-path="url(#p1948e66b9e)" d="M 410.85 568.091158 
L 466.65 568.091158 
" style="fill:none;stroke:#474747;stroke-linecap:round;stroke-width:1.75;"/>
   </g>
   <g id="line2d_30">
    <path clip-path="url(#p1948e66b9e)" d="M 410.85 561.414848 
L 466.65 561.414848 
" style="fill:none;stroke:#474747;stroke-linecap:round;stroke-width:1.75;"/>
   </g>
   <g id="line2d_31">
    <g clip-path="url(#p1948e66b9e)">
     <use style="fill:#474747;" x="438.75" xlink:href="#m5d65452520" y="568.199164"/>
     <use style="fill:#474747;" x="438.75" xlink:href="#m5d65452520" y="568.326388"/>
     <use style="fill:#474747;" x="438.75" xlink:href="#m5d65452520" y="561.259516"/>
     <use style="fill:#474747;" x="438.75" xlink:href="#m5d65452520" y="561.310382"/>
     <use style="fill:#474747;" x="438.75" xlink:href="#m5d65452520" y="560.966056"/>
     <use style="fill:#474747;" x="438.75" xlink:href="#m5d65452520" y="561.310769"/>
     <use style="fill:#474747;" x="438.75" xlink:href="#m5d65452520" y="561.047249"/>
     <use style="fill:#474747;" x="438.75" xlink:href="#m5d65452520" y="560.607638"/>
     <use style="fill:#474747;" x="438.75" xlink:href="#m5d65452520" y="560.926831"/>
     <use style="fill:#474747;" x="438.75" xlink:href="#m5d65452520" y="561.134292"/>
     <use style="fill:#474747;" x="438.75" xlink:href="#m5d65452520" y="561.304445"/>
     <use style="fill:#474747;" x="438.75" xlink:href="#m5d65452520" y="560.181795"/>
     <use style="fill:#474747;" x="438.75" xlink:href="#m5d65452520" y="560.487397"/>
     <use style="fill:#474747;" x="438.75" xlink:href="#m5d65452520" y="560.059789"/>
     <use style="fill:#474747;" x="438.75" xlink:href="#m5d65452520" y="560.99387"/>
     <use style="fill:#474747;" x="438.75" xlink:href="#m5d65452520" y="561.411405"/>
     <use style="fill:#474747;" x="438.75" xlink:href="#m5d65452520" y="561.347898"/>
     <use style="fill:#474747;" x="438.75" xlink:href="#m5d65452520" y="561.392115"/>
     <use style="fill:#474747;" x="438.75" xlink:href="#m5d65452520" y="561.212843"/>
     <use style="fill:#474747;" x="438.75" xlink:href="#m5d65452520" y="561.072706"/>
     <use style="fill:#474747;" x="438.75" xlink:href="#m5d65452520" y="559.555237"/>
     <use style="fill:#474747;" x="438.75" xlink:href="#m5d65452520" y="561.293949"/>
     <use style="fill:#474747;" x="438.75" xlink:href="#m5d65452520" y="560.709354"/>
     <use style="fill:#474747;" x="438.75" xlink:href="#m5d65452520" y="560.592246"/>
     <use style="fill:#474747;" x="438.75" xlink:href="#m5d65452520" y="558.899521"/>
     <use style="fill:#474747;" x="438.75" xlink:href="#m5d65452520" y="560.725968"/>
     <use style="fill:#474747;" x="438.75" xlink:href="#m5d65452520" y="561.305159"/>
     <use style="fill:#474747;" x="438.75" xlink:href="#m5d65452520" y="561.18406"/>
     <use style="fill:#474747;" x="438.75" xlink:href="#m5d65452520" y="560.253079"/>
     <use style="fill:#474747;" x="438.75" xlink:href="#m5d65452520" y="561.175539"/>
     <use style="fill:#474747;" x="438.75" xlink:href="#m5d65452520" y="561.287326"/>
     <use style="fill:#474747;" x="438.75" xlink:href="#m5d65452520" y="560.554379"/>
     <use style="fill:#474747;" x="438.75" xlink:href="#m5d65452520" y="560.630684"/>
     <use style="fill:#474747;" x="438.75" xlink:href="#m5d65452520" y="561.150499"/>
     <use style="fill:#474747;" x="438.75" xlink:href="#m5d65452520" y="560.696825"/>
     <use style="fill:#474747;" x="438.75" xlink:href="#m5d65452520" y="561.408952"/>
     <use style="fill:#474747;" x="438.75" xlink:href="#m5d65452520" y="561.385999"/>
     <use style="fill:#474747;" x="438.75" xlink:href="#m5d65452520" y="560.924147"/>
     <use style="fill:#474747;" x="438.75" xlink:href="#m5d65452520" y="561.08291"/>
     <use style="fill:#474747;" x="438.75" xlink:href="#m5d65452520" y="561.026572"/>
     <use style="fill:#474747;" x="438.75" xlink:href="#m5d65452520" y="560.089617"/>
     <use style="fill:#474747;" x="438.75" xlink:href="#m5d65452520" y="560.689635"/>
     <use style="fill:#474747;" x="438.75" xlink:href="#m5d65452520" y="560.879752"/>
     <use style="fill:#474747;" x="438.75" xlink:href="#m5d65452520" y="561.23898"/>
     <use style="fill:#474747;" x="438.75" xlink:href="#m5d65452520" y="560.879291"/>
     <use style="fill:#474747;" x="438.75" xlink:href="#m5d65452520" y="561.308216"/>
     <use style="fill:#474747;" x="438.75" xlink:href="#m5d65452520" y="560.192728"/>
     <use style="fill:#474747;" x="438.75" xlink:href="#m5d65452520" y="561.174803"/>
     <use style="fill:#474747;" x="438.75" xlink:href="#m5d65452520" y="561.090223"/>
     <use style="fill:#474747;" x="438.75" xlink:href="#m5d65452520" y="561.016748"/>
     <use style="fill:#474747;" x="438.75" xlink:href="#m5d65452520" y="561.373584"/>
     <use style="fill:#474747;" x="438.75" xlink:href="#m5d65452520" y="560.268047"/>
     <use style="fill:#474747;" x="438.75" xlink:href="#m5d65452520" y="559.981747"/>
     <use style="fill:#474747;" x="438.75" xlink:href="#m5d65452520" y="561.371034"/>
     <use style="fill:#474747;" x="438.75" xlink:href="#m5d65452520" y="560.81484"/>
     <use style="fill:#474747;" x="438.75" xlink:href="#m5d65452520" y="561.396319"/>
     <use style="fill:#474747;" x="438.75" xlink:href="#m5d65452520" y="561.268829"/>
     <use style="fill:#474747;" x="438.75" xlink:href="#m5d65452520" y="560.980975"/>
     <use style="fill:#474747;" x="438.75" xlink:href="#m5d65452520" y="560.208251"/>
     <use style="fill:#474747;" x="438.75" xlink:href="#m5d65452520" y="561.183429"/>
     <use style="fill:#474747;" x="438.75" xlink:href="#m5d65452520" y="561.280354"/>
     <use style="fill:#474747;" x="438.75" xlink:href="#m5d65452520" y="560.925173"/>
     <use style="fill:#474747;" x="438.75" xlink:href="#m5d65452520" y="561.079649"/>
     <use style="fill:#474747;" x="438.75" xlink:href="#m5d65452520" y="561.212453"/>
     <use style="fill:#474747;" x="438.75" xlink:href="#m5d65452520" y="561.333674"/>
     <use style="fill:#474747;" x="438.75" xlink:href="#m5d65452520" y="559.598336"/>
     <use style="fill:#474747;" x="438.75" xlink:href="#m5d65452520" y="561.275278"/>
     <use style="fill:#474747;" x="438.75" xlink:href="#m5d65452520" y="560.99484"/>
     <use style="fill:#474747;" x="438.75" xlink:href="#m5d65452520" y="560.795516"/>
     <use style="fill:#474747;" x="438.75" xlink:href="#m5d65452520" y="559.686015"/>
     <use style="fill:#474747;" x="438.75" xlink:href="#m5d65452520" y="561.365589"/>
     <use style="fill:#474747;" x="438.75" xlink:href="#m5d65452520" y="561.408276"/>
     <use style="fill:#474747;" x="438.75" xlink:href="#m5d65452520" y="561.154324"/>
     <use style="fill:#474747;" x="438.75" xlink:href="#m5d65452520" y="560.963817"/>
     <use style="fill:#474747;" x="438.75" xlink:href="#m5d65452520" y="561.301092"/>
     <use style="fill:#474747;" x="438.75" xlink:href="#m5d65452520" y="560.402236"/>
     <use style="fill:#474747;" x="438.75" xlink:href="#m5d65452520" y="561.189082"/>
     <use style="fill:#474747;" x="438.75" xlink:href="#m5d65452520" y="560.890593"/>
     <use style="fill:#474747;" x="438.75" xlink:href="#m5d65452520" y="561.176199"/>
     <use style="fill:#474747;" x="438.75" xlink:href="#m5d65452520" y="560.887204"/>
     <use style="fill:#474747;" x="438.75" xlink:href="#m5d65452520" y="559.702415"/>
     <use style="fill:#474747;" x="438.75" xlink:href="#m5d65452520" y="560.34595"/>
     <use style="fill:#474747;" x="438.75" xlink:href="#m5d65452520" y="561.174719"/>
     <use style="fill:#474747;" x="438.75" xlink:href="#m5d65452520" y="561.265598"/>
     <use style="fill:#474747;" x="438.75" xlink:href="#m5d65452520" y="561.077583"/>
    </g>
   </g>
   <g id="line2d_32">
    <path clip-path="url(#p1948e66b9e)" d="M 578.25 574.88555 
L 578.25 605.290909 
" style="fill:none;stroke:#474747;stroke-linecap:round;stroke-width:1.75;"/>
   </g>
   <g id="line2d_33">
    <path clip-path="url(#p1948e66b9e)" d="M 578.25 551.399522 
L 578.25 517.264343 
" style="fill:none;stroke:#474747;stroke-linecap:round;stroke-width:1.75;"/>
   </g>
   <g id="line2d_34">
    <path clip-path="url(#p1948e66b9e)" d="M 550.35 605.290909 
L 606.15 605.290909 
" style="fill:none;stroke:#474747;stroke-linecap:round;stroke-width:1.75;"/>
   </g>
   <g id="line2d_35">
    <path clip-path="url(#p1948e66b9e)" d="M 550.35 517.264343 
L 606.15 517.264343 
" style="fill:none;stroke:#474747;stroke-linecap:round;stroke-width:1.75;"/>
   </g>
   <g id="line2d_36"/>
   <g id="line2d_37">
    <path clip-path="url(#p1948e66b9e)" d="M 103.95 564.074578 
L 215.55 564.074578 
" style="fill:none;stroke:#474747;stroke-linecap:round;stroke-width:1.75;"/>
   </g>
   <g id="line2d_38">
    <path clip-path="url(#p1948e66b9e)" d="M 243.45 564.805047 
L 355.05 564.805047 
" style="fill:none;stroke:#474747;stroke-linecap:round;stroke-width:1.75;"/>
   </g>
   <g id="line2d_39">
    <path clip-path="url(#p1948e66b9e)" d="M 382.95 564.813231 
L 494.55 564.813231 
" style="fill:none;stroke:#474747;stroke-linecap:round;stroke-width:1.75;"/>
   </g>
   <g id="line2d_40">
    <path clip-path="url(#p1948e66b9e)" d="M 522.45 565.491949 
L 634.05 565.491949 
" style="fill:none;stroke:#474747;stroke-linecap:round;stroke-width:1.75;"/>
   </g>
   <g id="patch_7">
    <path d="M 90 630 
L 90 86.4 
" style="fill:none;stroke:#ffffff;stroke-linecap:square;stroke-linejoin:miter;"/>
   </g>
   <g id="patch_8">
    <path d="M 648 630 
L 648 86.4 
" style="fill:none;stroke:#ffffff;stroke-linecap:square;stroke-linejoin:miter;"/>
   </g>
   <g id="patch_9">
    <path d="M 90 630 
L 648 630 
" style="fill:none;stroke:#ffffff;stroke-linecap:square;stroke-linejoin:miter;"/>
   </g>
   <g id="patch_10">
    <path d="M 90 86.4 
L 648 86.4 
" style="fill:none;stroke:#ffffff;stroke-linecap:square;stroke-linejoin:miter;"/>
   </g>
   <g id="text_13">
    <!-- Boxplots of Estimators -->
    <defs>
     <path d="M 61.421875 19.390625 
Q 61.421875 14.15625 59.375 10.46875 
Q 57.328125 6.78125 53.859375 4.46875 
Q 50.390625 2.15625 45.796875 1.078125 
Q 41.21875 0 36.140625 0 
L 8.203125 0 
L 8.203125 68.796875 
L 33.203125 68.796875 
Q 38.921875 68.796875 43.40625 67.84375 
Q 47.90625 66.890625 51.03125 64.84375 
Q 54.15625 62.796875 55.78125 59.640625 
Q 57.421875 56.5 57.421875 52.09375 
Q 57.421875 49.21875 56.609375 46.671875 
Q 55.8125 44.140625 54.171875 42.0625 
Q 52.546875 39.984375 50.078125 38.5 
Q 47.609375 37.015625 44.34375 36.28125 
Q 48.484375 35.796875 51.6875 34.375 
Q 54.890625 32.953125 57.03125 30.75 
Q 59.1875 28.5625 60.296875 25.65625 
Q 61.421875 22.75 61.421875 19.390625 
M 48.046875 50.984375 
Q 48.046875 56.546875 44.234375 58.9375 
Q 40.4375 61.328125 33.203125 61.328125 
L 17.53125 61.328125 
L 17.53125 39.546875 
L 33.203125 39.546875 
Q 37.3125 39.546875 40.140625 40.34375 
Q 42.96875 41.15625 44.71875 42.640625 
Q 46.484375 44.140625 47.265625 46.234375 
Q 48.046875 48.34375 48.046875 50.984375 
M 52 20.125 
Q 52 23.390625 50.796875 25.6875 
Q 49.609375 27.984375 47.359375 29.4375 
Q 45.125 30.90625 41.96875 31.59375 
Q 38.8125 32.28125 34.90625 32.28125 
L 17.53125 32.28125 
L 17.53125 7.46875 
L 35.640625 7.46875 
Q 39.203125 7.46875 42.203125 8.046875 
Q 45.21875 8.640625 47.390625 10.109375 
Q 49.5625 11.578125 50.78125 14.015625 
Q 52 16.453125 52 20.125 
" id="LiberationSans-42"/>
     <path d="M 39.109375 0 
L 24.90625 21.6875 
L 10.59375 0 
L 1.125 0 
L 19.921875 27.15625 
L 2 52.828125 
L 11.71875 52.828125 
L 24.90625 32.28125 
L 37.984375 52.828125 
L 47.796875 52.828125 
L 29.890625 27.25 
L 48.921875 0 
z
" id="LiberationSans-78"/>
     <path d="M 17.625 46.4375 
L 17.625 0 
L 8.84375 0 
L 8.84375 46.4375 
L 1.421875 46.4375 
L 1.421875 52.828125 
L 8.84375 52.828125 
L 8.84375 58.796875 
Q 8.84375 61.671875 9.375 64.140625 
Q 9.90625 66.609375 11.34375 68.4375 
Q 12.796875 70.265625 15.28125 71.3125 
Q 17.78125 72.359375 21.734375 72.359375 
Q 23.296875 72.359375 24.96875 72.21875 
Q 26.65625 72.078125 27.9375 71.78125 
L 27.9375 65.09375 
Q 27.09375 65.234375 26 65.359375 
Q 24.90625 65.484375 24.03125 65.484375 
Q 22.078125 65.484375 20.828125 64.9375 
Q 19.578125 64.40625 18.875 63.40625 
Q 18.171875 62.40625 17.890625 60.9375 
Q 17.625 59.46875 17.625 57.5625 
L 17.625 52.828125 
L 27.9375 52.828125 
L 27.9375 46.4375 
z
" id="LiberationSans-66"/>
    </defs>
    <g style="fill:#262626;" transform="translate(297.37575 80.4)scale(0.144 -0.144)">
     <use xlink:href="#LiberationSans-42"/>
     <use x="66.699219" xlink:href="#LiberationSans-6f"/>
     <use x="122.314453" xlink:href="#LiberationSans-78"/>
     <use x="172.314453" xlink:href="#LiberationSans-70"/>
     <use x="227.929688" xlink:href="#LiberationSans-6c"/>
     <use x="250.146484" xlink:href="#LiberationSans-6f"/>
     <use x="305.761719" xlink:href="#LiberationSans-74"/>
     <use x="333.544922" xlink:href="#LiberationSans-73"/>
     <use x="383.544922" xlink:href="#LiberationSans-20"/>
     <use x="411.328125" xlink:href="#LiberationSans-6f"/>
     <use x="466.943359" xlink:href="#LiberationSans-66"/>
     <use x="494.726562" xlink:href="#LiberationSans-20"/>
     <use x="522.509766" xlink:href="#LiberationSans-45"/>
     <use x="589.208984" xlink:href="#LiberationSans-73"/>
     <use x="639.208984" xlink:href="#LiberationSans-74"/>
     <use x="666.992188" xlink:href="#LiberationSans-69"/>
     <use x="689.208984" xlink:href="#LiberationSans-6d"/>
     <use x="772.509766" xlink:href="#LiberationSans-61"/>
     <use x="828.125" xlink:href="#LiberationSans-74"/>
     <use x="855.908203" xlink:href="#LiberationSans-6f"/>
     <use x="911.523438" xlink:href="#LiberationSans-72"/>
     <use x="944.824219" xlink:href="#LiberationSans-73"/>
    </g>
   </g>
  </g>
 </g>
 <defs>
  <clipPath id="p1948e66b9e">
   <rect height="543.6" width="558" x="90" y="86.4"/>
  </clipPath>
 </defs>
</svg>
